solid OpenSCAD_Model
  facet normal -1 -0 -0
    outer loop
      vertex -34.5 -11.5 0
      vertex -34.5 -11.5 2
      vertex -34.5 11.5 0
    endloop
  endfacet
  facet normal -1 0 0
    outer loop
      vertex -34.5 11.5 0
      vertex -34.5 -11.5 2
      vertex -34.5 11.5 2
    endloop
  endfacet
  facet normal 0 -1 0
    outer loop
      vertex -34.5 -11.5 2
      vertex -34.5 -11.5 0
      vertex -9.55133 -11.5 0
    endloop
  endfacet
  facet normal 0 -1 0
    outer loop
      vertex -9.55133 -11.5 2
      vertex -34.5 -11.5 2
      vertex -9.55133 -11.5 0
    endloop
  endfacet
  facet normal -0 -0 -1
    outer loop
      vertex -23.753 1.56366 0
      vertex -34.5 11.5 0
      vertex -9.55133 -11.5 0
    endloop
  endfacet
  facet normal 0 0 -1
    outer loop
      vertex -9.55133 -11.5 0
      vertex -34.5 11.5 0
      vertex -11.5 11.5 0
    endloop
  endfacet
  facet normal 0 0 -1
    outer loop
      vertex -9.55133 -11.5 0
      vertex -11.5 11.5 0
      vertex -11.5 34.5 0
    endloop
  endfacet
  facet normal 0 -0 -1
    outer loop
      vertex -0.445042 26.9499 0
      vertex -11.5 34.5 0
      vertex 11.5 34.5 0
    endloop
  endfacet
  facet normal 0 0 -1
    outer loop
      vertex 6.69131 7.43145 0
      vertex 11.5 34.5 0
      vertex 11.5 11.5 0
    endloop
  endfacet
  facet normal 0 0 -1
    outer loop
      vertex 10 0 0
      vertex 11.5 11.5 0
      vertex 34.5 11.5 0
    endloop
  endfacet
  facet normal -0 0 -1
    outer loop
      vertex 26.247 -1.56366 0
      vertex 34.5 11.5 0
      vertex 34.5 -11.5 0
    endloop
  endfacet
  facet normal -0 0 -1
    outer loop
      vertex 5 -8.66025 0
      vertex 34.5 11.5 0
      vertex 9.55133 -11.5 0
    endloop
  endfacet
  facet normal 0 0 -1
    outer loop
      vertex -4.63525 -14.2658 0
      vertex 1.56793 -14.9178 0
      vertex -1.56793 -14.9178 0
    endloop
  endfacet
  facet normal 0 0 -1
    outer loop
      vertex 9.55133 -11.5 0
      vertex 7.5 -12.9904 0
      vertex -9.55133 -11.5 0
    endloop
  endfacet
  facet normal 0 0 -1
    outer loop
      vertex -23.753 -1.56366 0
      vertex -9.55133 -11.5 0
      vertex -25.445 -1.94986 0
    endloop
  endfacet
  facet normal 0 0 -1
    outer loop
      vertex -7.5 -12.9904 0
      vertex 4.63525 -14.2658 0
      vertex -4.63525 -14.2658 0
    endloop
  endfacet
  facet normal 0 0 -1
    outer loop
      vertex 4.63525 -14.2658 0
      vertex 1.56793 -14.9178 0
      vertex -4.63525 -14.2658 0
    endloop
  endfacet
  facet normal 0 0 -1
    outer loop
      vertex 7.5 -12.9904 0
      vertex 4.63525 -14.2658 0
      vertex -7.5 -12.9904 0
    endloop
  endfacet
  facet normal 0 -0 -1
    outer loop
      vertex -34.5 -11.5 0
      vertex -34.5 11.5 0
      vertex -26.8019 0.867767 0
    endloop
  endfacet
  facet normal 0 0 -1
    outer loop
      vertex -34.5 -11.5 0
      vertex -26.8019 0.867767 0
      vertex -26.8019 -0.867767 0
    endloop
  endfacet
  facet normal 0 0 -1
    outer loop
      vertex -34.5 -11.5 0
      vertex -26.8019 -0.867767 0
      vertex -25.445 -1.94986 0
    endloop
  endfacet
  facet normal -0 0 -1
    outer loop
      vertex -34.5 -11.5 0
      vertex -25.445 -1.94986 0
      vertex -9.55133 -11.5 0
    endloop
  endfacet
  facet normal 0 0 -1
    outer loop
      vertex -23 0 0
      vertex -9.55133 -11.5 0
      vertex -23.753 -1.56366 0
    endloop
  endfacet
  facet normal 0 0 -1
    outer loop
      vertex -6.69131 -7.43145 0
      vertex -9.55133 -11.5 0
      vertex -8.09017 -5.87785 0
    endloop
  endfacet
  facet normal -0 -0 -1
    outer loop
      vertex -25.445 1.94986 0
      vertex -34.5 11.5 0
      vertex -23.753 1.56366 0
    endloop
  endfacet
  facet normal -0 -0 -1
    outer loop
      vertex -23 0 0
      vertex -23.753 1.56366 0
      vertex -9.55133 -11.5 0
    endloop
  endfacet
  facet normal 0 -0 -1
    outer loop
      vertex -26.8019 0.867767 0
      vertex -34.5 11.5 0
      vertex -25.445 1.94986 0
    endloop
  endfacet
  facet normal 0 0 -1
    outer loop
      vertex -9.55133 -11.5 0
      vertex -11.5 34.5 0
      vertex -10 0 0
    endloop
  endfacet
  facet normal 0 0 -1
    outer loop
      vertex -9.55133 -11.5 0
      vertex -10 0 0
      vertex -9.78148 -2.07912 0
    endloop
  endfacet
  facet normal 0 -0 -1
    outer loop
      vertex -9.55133 -11.5 0
      vertex -9.78148 -2.07912 0
      vertex -9.13546 -4.06737 0
    endloop
  endfacet
  facet normal 0 0 -1
    outer loop
      vertex -9.55133 -11.5 0
      vertex -9.13546 -4.06737 0
      vertex -8.09017 -5.87785 0
    endloop
  endfacet
  facet normal 0 0 -1
    outer loop
      vertex -5 -8.66025 0
      vertex -9.55133 -11.5 0
      vertex -6.69131 -7.43145 0
    endloop
  endfacet
  facet normal 0 0 -1
    outer loop
      vertex -3.09017 -9.51056 0
      vertex -9.55133 -11.5 0
      vertex -5 -8.66025 0
    endloop
  endfacet
  facet normal -0 0 -1
    outer loop
      vertex 10 0 0
      vertex 34.5 11.5 0
      vertex 9.78148 -2.07912 0
    endloop
  endfacet
  facet normal 0 0 -1
    outer loop
      vertex -9.55133 -11.5 0
      vertex -3.09017 -9.51056 0
      vertex -1.04529 -9.94522 0
    endloop
  endfacet
  facet normal -0 0 -1
    outer loop
      vertex -9.55133 -11.5 0
      vertex -1.04529 -9.94522 0
      vertex 9.55133 -11.5 0
    endloop
  endfacet
  facet normal -0 0 -1
    outer loop
      vertex 9.78148 -2.07912 0
      vertex 34.5 11.5 0
      vertex 9.13546 -4.06737 0
    endloop
  endfacet
  facet normal -0 0 -1
    outer loop
      vertex 8.09017 -5.87785 0
      vertex 34.5 11.5 0
      vertex 6.69131 -7.43145 0
    endloop
  endfacet
  facet normal -0 0 -1
    outer loop
      vertex 9.13546 -4.06737 0
      vertex 34.5 11.5 0
      vertex 8.09017 -5.87785 0
    endloop
  endfacet
  facet normal -0 0 -1
    outer loop
      vertex 1.04529 -9.94522 0
      vertex 3.09017 -9.51056 0
      vertex 9.55133 -11.5 0
    endloop
  endfacet
  facet normal -0 0 -1
    outer loop
      vertex 6.69131 -7.43145 0
      vertex 34.5 11.5 0
      vertex 5 -8.66025 0
    endloop
  endfacet
  facet normal -0 0 -1
    outer loop
      vertex 3.09017 -9.51056 0
      vertex 5 -8.66025 0
      vertex 9.55133 -11.5 0
    endloop
  endfacet
  facet normal 0 0 -1
    outer loop
      vertex 1.04529 -9.94522 0
      vertex 9.55133 -11.5 0
      vertex -1.04529 -9.94522 0
    endloop
  endfacet
  facet normal -0 0 -1
    outer loop
      vertex 9.78148 2.07912 0
      vertex 11.5 11.5 0
      vertex 10 0 0
    endloop
  endfacet
  facet normal -0 0 -1
    outer loop
      vertex 6.69131 7.43145 0
      vertex 11.5 11.5 0
      vertex 8.09017 5.87785 0
    endloop
  endfacet
  facet normal -0 0 -1
    outer loop
      vertex 9.13546 4.06737 0
      vertex 11.5 11.5 0
      vertex 9.78148 2.07912 0
    endloop
  endfacet
  facet normal -0 0 -1
    outer loop
      vertex 8.09017 5.87785 0
      vertex 11.5 11.5 0
      vertex 9.13546 4.06737 0
    endloop
  endfacet
  facet normal -0 0 -1
    outer loop
      vertex 5 8.66025 0
      vertex 11.5 34.5 0
      vertex 6.69131 7.43145 0
    endloop
  endfacet
  facet normal -0 0 -1
    outer loop
      vertex -1.04529 9.94522 0
      vertex 11.5 34.5 0
      vertex 1.04529 9.94522 0
    endloop
  endfacet
  facet normal -0 0 -1
    outer loop
      vertex 3.09017 9.51056 0
      vertex 11.5 34.5 0
      vertex 5 8.66025 0
    endloop
  endfacet
  facet normal -0 0 -1
    outer loop
      vertex 1.04529 9.94522 0
      vertex 11.5 34.5 0
      vertex 3.09017 9.51056 0
    endloop
  endfacet
  facet normal 0 0 -1
    outer loop
      vertex -3.09017 9.51056 0
      vertex 11.5 34.5 0
      vertex -1.04529 9.94522 0
    endloop
  endfacet
  facet normal 0 0 -1
    outer loop
      vertex -5 8.66025 0
      vertex 11.5 34.5 0
      vertex -3.09017 9.51056 0
    endloop
  endfacet
  facet normal 0 -0 -1
    outer loop
      vertex -6.69131 7.43145 0
      vertex -11.5 34.5 0
      vertex -5 8.66025 0
    endloop
  endfacet
  facet normal -0 0 -1
    outer loop
      vertex 1.24698 26.5637 0
      vertex 11.5 34.5 0
      vertex 2 25 0
    endloop
  endfacet
  facet normal 0 -0 -1
    outer loop
      vertex -8.09017 5.87785 0
      vertex -11.5 34.5 0
      vertex -6.69131 7.43145 0
    endloop
  endfacet
  facet normal 0 -0 -1
    outer loop
      vertex -9.13546 4.06737 0
      vertex -11.5 34.5 0
      vertex -8.09017 5.87785 0
    endloop
  endfacet
  facet normal 0 -0 -1
    outer loop
      vertex -9.78148 2.07912 0
      vertex -11.5 34.5 0
      vertex -9.13546 4.06737 0
    endloop
  endfacet
  facet normal 0 -0 -1
    outer loop
      vertex -10 0 0
      vertex -11.5 34.5 0
      vertex -9.78148 2.07912 0
    endloop
  endfacet
  facet normal 0 -0 -1
    outer loop
      vertex -5 8.66025 0
      vertex -11.5 34.5 0
      vertex -1.80194 25.8678 0
    endloop
  endfacet
  facet normal 0 0 -1
    outer loop
      vertex -5 8.66025 0
      vertex -1.80194 25.8678 0
      vertex -1.80194 24.1322 0
    endloop
  endfacet
  facet normal 0 0 -1
    outer loop
      vertex -5 8.66025 0
      vertex -1.80194 24.1322 0
      vertex -0.445042 23.0501 0
    endloop
  endfacet
  facet normal 0 0 -1
    outer loop
      vertex -5 8.66025 0
      vertex -0.445042 23.0501 0
      vertex 1.24698 23.4363 0
    endloop
  endfacet
  facet normal 0 0 -1
    outer loop
      vertex -5 8.66025 0
      vertex 1.24698 23.4363 0
      vertex 11.5 34.5 0
    endloop
  endfacet
  facet normal 0 0 -1
    outer loop
      vertex 1.24698 23.4363 0
      vertex 2 25 0
      vertex 11.5 34.5 0
    endloop
  endfacet
  facet normal -0 0 -1
    outer loop
      vertex -0.445042 26.9499 0
      vertex 11.5 34.5 0
      vertex 1.24698 26.5637 0
    endloop
  endfacet
  facet normal 0 -0 -1
    outer loop
      vertex -1.80194 25.8678 0
      vertex -11.5 34.5 0
      vertex -0.445042 26.9499 0
    endloop
  endfacet
  facet normal 0 0 -1
    outer loop
      vertex 26.247 -1.56366 0
      vertex 34.5 -11.5 0
      vertex 24.555 -1.94986 0
    endloop
  endfacet
  facet normal 0 0 -1
    outer loop
      vertex 9.55133 -11.5 0
      vertex 34.5 11.5 0
      vertex 23.1981 0.867767 0
    endloop
  endfacet
  facet normal 0 0 -1
    outer loop
      vertex 9.55133 -11.5 0
      vertex 23.1981 0.867767 0
      vertex 23.1981 -0.867767 0
    endloop
  endfacet
  facet normal -0 0 -1
    outer loop
      vertex 9.55133 -11.5 0
      vertex 23.1981 -0.867767 0
      vertex 34.5 -11.5 0
    endloop
  endfacet
  facet normal 0 0 -1
    outer loop
      vertex 23.1981 -0.867767 0
      vertex 24.555 -1.94986 0
      vertex 34.5 -11.5 0
    endloop
  endfacet
  facet normal -0 0 -1
    outer loop
      vertex 27 0 0
      vertex 34.5 11.5 0
      vertex 26.247 -1.56366 0
    endloop
  endfacet
  facet normal -0 0 -1
    outer loop
      vertex 26.247 1.56366 0
      vertex 34.5 11.5 0
      vertex 27 0 0
    endloop
  endfacet
  facet normal -0 0 -1
    outer loop
      vertex 24.555 1.94986 0
      vertex 34.5 11.5 0
      vertex 26.247 1.56366 0
    endloop
  endfacet
  facet normal 0 0 -1
    outer loop
      vertex 23.1981 0.867767 0
      vertex 34.5 11.5 0
      vertex 24.555 1.94986 0
    endloop
  endfacet
  facet normal 0 0 -1
    outer loop
      vertex -9.55133 -11.5 0
      vertex 7.5 -12.9904 0
      vertex -7.5 -12.9904 0
    endloop
  endfacet
  facet normal 0 1 0
    outer loop
      vertex -34.5 11.5 0
      vertex -34.5 11.5 2
      vertex -11.5 11.5 0
    endloop
  endfacet
  facet normal 0 1 0
    outer loop
      vertex -11.5 11.5 0
      vertex -34.5 11.5 2
      vertex -11.5 11.5 2
    endloop
  endfacet
  facet normal 0 -0 1
    outer loop
      vertex -10.037 -11.1472 2
      vertex -34.5 -11.5 2
      vertex -9.55133 -11.5 2
    endloop
  endfacet
  facet normal 0 -0 1
    outer loop
      vertex -25.445 -1.94986 2
      vertex -34.5 -11.5 2
      vertex -10.037 -11.1472 2
    endloop
  endfacet
  facet normal 0 0 1
    outer loop
      vertex 4.63525 14.2658 2
      vertex 11.5 34.5 2
      vertex 1.56793 14.9178 2
    endloop
  endfacet
  facet normal -0 -0 1
    outer loop
      vertex -13.7032 -6.10105 2
      vertex -34.5 11.5 2
      vertex -12.1353 -8.81678 2
    endloop
  endfacet
  facet normal -0 -0 1
    outer loop
      vertex -14.6722 -3.11867 2
      vertex -34.5 11.5 2
      vertex -13.7032 -6.10105 2
    endloop
  endfacet
  facet normal -0 -0 1
    outer loop
      vertex -15 0 2
      vertex -34.5 11.5 2
      vertex -14.6722 -3.11867 2
    endloop
  endfacet
  facet normal -0 0 1
    outer loop
      vertex -14.6722 3.11867 2
      vertex -34.5 11.5 2
      vertex -15 0 2
    endloop
  endfacet
  facet normal -0 0 1
    outer loop
      vertex -13.7032 6.10105 2
      vertex -34.5 11.5 2
      vertex -14.6722 3.11867 2
    endloop
  endfacet
  facet normal -0 0 1
    outer loop
      vertex -12.1353 8.81678 2
      vertex -34.5 11.5 2
      vertex -13.7032 6.10105 2
    endloop
  endfacet
  facet normal -0 0 1
    outer loop
      vertex -10.037 11.1472 2
      vertex -34.5 11.5 2
      vertex -12.1353 8.81678 2
    endloop
  endfacet
  facet normal 0 -0 1
    outer loop
      vertex -11.5 11.5 2
      vertex -34.5 11.5 2
      vertex -10.037 11.1472 2
    endloop
  endfacet
  facet normal 0 0 1
    outer loop
      vertex -25.445 1.94986 2
      vertex -23.753 1.56366 2
      vertex -34.5 11.5 2
    endloop
  endfacet
  facet normal 0 0 1
    outer loop
      vertex 11.5 34.5 2
      vertex -1.56793 14.9178 2
      vertex 1.56793 14.9178 2
    endloop
  endfacet
  facet normal 0 0 1
    outer loop
      vertex -11.5 34.5 2
      vertex -0.445042 26.9499 2
      vertex 11.5 34.5 2
    endloop
  endfacet
  facet normal 0 0 1
    outer loop
      vertex -11.5 34.5 2
      vertex -1.80194 25.8678 2
      vertex -0.445042 26.9499 2
    endloop
  endfacet
  facet normal -0 0 1
    outer loop
      vertex 11.5 11.5 2
      vertex 7.5 12.9904 2
      vertex 10.037 11.1472 2
    endloop
  endfacet
  facet normal 0 0 1
    outer loop
      vertex 34.5 -11.5 2
      vertex 10.037 11.1472 2
      vertex 12.1353 8.81678 2
    endloop
  endfacet
  facet normal 0 0 1
    outer loop
      vertex 34.5 -11.5 2
      vertex 12.1353 8.81678 2
      vertex 13.7032 6.10105 2
    endloop
  endfacet
  facet normal 0 0 1
    outer loop
      vertex 34.5 -11.5 2
      vertex 13.7032 6.10105 2
      vertex 14.6722 3.11867 2
    endloop
  endfacet
  facet normal 0 0 1
    outer loop
      vertex 34.5 -11.5 2
      vertex 14.6722 3.11867 2
      vertex 15 0 2
    endloop
  endfacet
  facet normal 0 0 1
    outer loop
      vertex 34.5 -11.5 2
      vertex 15 0 2
      vertex 14.6722 -3.11867 2
    endloop
  endfacet
  facet normal 0 0 1
    outer loop
      vertex 34.5 -11.5 2
      vertex 14.6722 -3.11867 2
      vertex 13.7032 -6.10105 2
    endloop
  endfacet
  facet normal 0 0 1
    outer loop
      vertex 34.5 -11.5 2
      vertex 13.7032 -6.10105 2
      vertex 12.1353 -8.81678 2
    endloop
  endfacet
  facet normal 0 0 1
    outer loop
      vertex 34.5 -11.5 2
      vertex 12.1353 -8.81678 2
      vertex 10.037 -11.1472 2
    endloop
  endfacet
  facet normal -0 0 1
    outer loop
      vertex 34.5 -11.5 2
      vertex 10.037 -11.1472 2
      vertex 9.55133 -11.5 2
    endloop
  endfacet
  facet normal -0 -0 1
    outer loop
      vertex 23.1981 -0.867767 2
      vertex 10.037 11.1472 2
      vertex 34.5 -11.5 2
    endloop
  endfacet
  facet normal 0 0 1
    outer loop
      vertex 34.5 11.5 2
      vertex 11.5 11.5 2
      vertex 10.037 11.1472 2
    endloop
  endfacet
  facet normal 0 0 1
    outer loop
      vertex -11.5 34.5 2
      vertex -1.80194 24.1322 2
      vertex -1.80194 25.8678 2
    endloop
  endfacet
  facet normal 0 0 1
    outer loop
      vertex -7.5 12.9904 2
      vertex -11.5 11.5 2
      vertex -10.037 11.1472 2
    endloop
  endfacet
  facet normal 0 0 1
    outer loop
      vertex -23.753 1.56366 2
      vertex -23 0 2
      vertex -10.037 -11.1472 2
    endloop
  endfacet
  facet normal 0 0 1
    outer loop
      vertex -0.445042 26.9499 2
      vertex 1.24698 26.5637 2
      vertex 11.5 34.5 2
    endloop
  endfacet
  facet normal 0 -0 1
    outer loop
      vertex -34.5 11.5 2
      vertex -34.5 -11.5 2
      vertex -26.8019 -0.867767 2
    endloop
  endfacet
  facet normal 0 -0 1
    outer loop
      vertex -23.753 -1.56366 2
      vertex -25.445 -1.94986 2
      vertex -10.037 -11.1472 2
    endloop
  endfacet
  facet normal 0 0 1
    outer loop
      vertex -34.5 11.5 2
      vertex -26.8019 -0.867767 2
      vertex -26.8019 0.867767 2
    endloop
  endfacet
  facet normal 0 0 1
    outer loop
      vertex -34.5 11.5 2
      vertex -26.8019 0.867767 2
      vertex -25.445 1.94986 2
    endloop
  endfacet
  facet normal 0 0 1
    outer loop
      vertex 11.5 11.5 2
      vertex 4.63525 14.2658 2
      vertex 7.5 12.9904 2
    endloop
  endfacet
  facet normal 0 -0 1
    outer loop
      vertex -23 0 2
      vertex -23.753 -1.56366 2
      vertex -10.037 -11.1472 2
    endloop
  endfacet
  facet normal 0 -0 1
    outer loop
      vertex -26.8019 -0.867767 2
      vertex -34.5 -11.5 2
      vertex -25.445 -1.94986 2
    endloop
  endfacet
  facet normal -0 0 1
    outer loop
      vertex -0.445042 23.0501 2
      vertex -1.80194 24.1322 2
      vertex -1.56793 14.9178 2
    endloop
  endfacet
  facet normal 0 0 1
    outer loop
      vertex 1.24698 26.5637 2
      vertex 2 25 2
      vertex 11.5 34.5 2
    endloop
  endfacet
  facet normal 0 0 1
    outer loop
      vertex 24.555 1.94986 2
      vertex 26.247 1.56366 2
      vertex 34.5 11.5 2
    endloop
  endfacet
  facet normal 0 0 1
    outer loop
      vertex 11.5 34.5 2
      vertex 2 25 2
      vertex -1.56793 14.9178 2
    endloop
  endfacet
  facet normal 0 0 1
    outer loop
      vertex 2 25 2
      vertex 1.24698 23.4363 2
      vertex -1.56793 14.9178 2
    endloop
  endfacet
  facet normal 0 0 1
    outer loop
      vertex 1.24698 23.4363 2
      vertex -0.445042 23.0501 2
      vertex -1.56793 14.9178 2
    endloop
  endfacet
  facet normal -0 -0 1
    outer loop
      vertex 24.555 -1.94986 2
      vertex 23.1981 -0.867767 2
      vertex 34.5 -11.5 2
    endloop
  endfacet
  facet normal -0 0 1
    outer loop
      vertex 23.1981 0.867767 2
      vertex 10.037 11.1472 2
      vertex 23.1981 -0.867767 2
    endloop
  endfacet
  facet normal 0 0 1
    outer loop
      vertex 34.5 11.5 2
      vertex 10.037 11.1472 2
      vertex 23.1981 0.867767 2
    endloop
  endfacet
  facet normal 0 0 1
    outer loop
      vertex 34.5 11.5 2
      vertex 23.1981 0.867767 2
      vertex 24.555 1.94986 2
    endloop
  endfacet
  facet normal 0 0 1
    outer loop
      vertex 34.5 11.5 2
      vertex 26.247 1.56366 2
      vertex 34.5 -11.5 2
    endloop
  endfacet
  facet normal 0 0 1
    outer loop
      vertex 26.247 1.56366 2
      vertex 27 0 2
      vertex 34.5 -11.5 2
    endloop
  endfacet
  facet normal 0 -0 1
    outer loop
      vertex 27 0 2
      vertex 26.247 -1.56366 2
      vertex 34.5 -11.5 2
    endloop
  endfacet
  facet normal 0 -0 1
    outer loop
      vertex 26.247 -1.56366 2
      vertex 24.555 -1.94986 2
      vertex 34.5 -11.5 2
    endloop
  endfacet
  facet normal 0 0 1
    outer loop
      vertex -23.753 1.56366 2
      vertex -12.1353 -8.81678 2
      vertex -34.5 11.5 2
    endloop
  endfacet
  facet normal 0 0 1
    outer loop
      vertex -10.037 -11.1472 2
      vertex -12.1353 -8.81678 2
      vertex -23.753 1.56366 2
    endloop
  endfacet
  facet normal 0 0 1
    outer loop
      vertex 11.5 11.5 2
      vertex 11.5 34.5 2
      vertex 4.63525 14.2658 2
    endloop
  endfacet
  facet normal 0 0 1
    outer loop
      vertex -11.5 34.5 2
      vertex -1.56793 14.9178 2
      vertex -1.80194 24.1322 2
    endloop
  endfacet
  facet normal 0 0 1
    outer loop
      vertex -11.5 34.5 2
      vertex -4.63525 14.2658 2
      vertex -1.56793 14.9178 2
    endloop
  endfacet
  facet normal 0 0 1
    outer loop
      vertex -11.5 34.5 2
      vertex -7.5 12.9904 2
      vertex -4.63525 14.2658 2
    endloop
  endfacet
  facet normal 0 -0 1
    outer loop
      vertex -11.5 34.5 2
      vertex -11.5 11.5 2
      vertex -7.5 12.9904 2
    endloop
  endfacet
  facet normal -0.587785 -0.809017 0
    outer loop
      vertex -10.037 -11.1472 24
      vertex -10.037 -11.1472 2
      vertex -9.55133 -11.5 2
    endloop
  endfacet
  facet normal -0.587785 -0.809017 -1.67197e-17
    outer loop
      vertex -7.5 -12.9904 0
      vertex -10.037 -11.1472 24
      vertex -9.55133 -11.5 2
    endloop
  endfacet
  facet normal -0.587785 -0.809017 -0
    outer loop
      vertex -9.55133 -11.5 0
      vertex -7.5 -12.9904 0
      vertex -9.55133 -11.5 2
    endloop
  endfacet
  facet normal -0.587785 -0.809017 -0
    outer loop
      vertex -7.5 -12.9904 0
      vertex -7.5 -12.9904 24
      vertex -10.037 -11.1472 24
    endloop
  endfacet
  facet normal -0.406737 -0.913545 0
    outer loop
      vertex -7.5 -12.9904 24
      vertex -7.5 -12.9904 0
      vertex -4.63525 -14.2658 0
    endloop
  endfacet
  facet normal -0.406737 -0.913545 0
    outer loop
      vertex -4.63525 -14.2658 24
      vertex -7.5 -12.9904 24
      vertex -4.63525 -14.2658 0
    endloop
  endfacet
  facet normal -0.207911 -0.978148 0
    outer loop
      vertex -4.63525 -14.2658 24
      vertex -4.63525 -14.2658 0
      vertex -1.56793 -14.9178 0
    endloop
  endfacet
  facet normal -0.207911 -0.978148 0
    outer loop
      vertex -1.56793 -14.9178 24
      vertex -4.63525 -14.2658 24
      vertex -1.56793 -14.9178 0
    endloop
  endfacet
  facet normal 0 -1 0
    outer loop
      vertex -1.56793 -14.9178 24
      vertex -1.56793 -14.9178 0
      vertex 1.56793 -14.9178 0
    endloop
  endfacet
  facet normal 0 -1 0
    outer loop
      vertex 1.56793 -14.9178 24
      vertex -1.56793 -14.9178 24
      vertex 1.56793 -14.9178 0
    endloop
  endfacet
  facet normal 0.207911 -0.978148 0
    outer loop
      vertex 1.56793 -14.9178 24
      vertex 1.56793 -14.9178 0
      vertex 4.63525 -14.2658 0
    endloop
  endfacet
  facet normal 0.207911 -0.978148 0
    outer loop
      vertex 4.63525 -14.2658 24
      vertex 1.56793 -14.9178 24
      vertex 4.63525 -14.2658 0
    endloop
  endfacet
  facet normal 0.406737 -0.913545 0
    outer loop
      vertex 4.63525 -14.2658 24
      vertex 4.63525 -14.2658 0
      vertex 7.5 -12.9904 0
    endloop
  endfacet
  facet normal 0.406737 -0.913545 0
    outer loop
      vertex 7.5 -12.9904 24
      vertex 4.63525 -14.2658 24
      vertex 7.5 -12.9904 0
    endloop
  endfacet
  facet normal 0.587785 -0.809017 0
    outer loop
      vertex 7.5 -12.9904 24
      vertex 7.5 -12.9904 0
      vertex 9.55133 -11.5 0
    endloop
  endfacet
  facet normal 0.587785 -0.809017 -4.23596e-17
    outer loop
      vertex 10.037 -11.1472 2
      vertex 7.5 -12.9904 24
      vertex 9.55133 -11.5 2
    endloop
  endfacet
  facet normal 0.587785 -0.809017 0
    outer loop
      vertex 9.55133 -11.5 2
      vertex 7.5 -12.9904 24
      vertex 9.55133 -11.5 0
    endloop
  endfacet
  facet normal 0.587785 -0.809017 0
    outer loop
      vertex 10.037 -11.1472 24
      vertex 7.5 -12.9904 24
      vertex 10.037 -11.1472 2
    endloop
  endfacet
  facet normal 0 -1 0
    outer loop
      vertex 9.55133 -11.5 2
      vertex 9.55133 -11.5 0
      vertex 34.5 -11.5 0
    endloop
  endfacet
  facet normal 0 -1 0
    outer loop
      vertex 34.5 -11.5 2
      vertex 9.55133 -11.5 2
      vertex 34.5 -11.5 0
    endloop
  endfacet
  facet normal 1 0 -0
    outer loop
      vertex 34.5 -11.5 2
      vertex 34.5 -11.5 0
      vertex 34.5 11.5 0
    endloop
  endfacet
  facet normal 1 0 0
    outer loop
      vertex 34.5 11.5 2
      vertex 34.5 -11.5 2
      vertex 34.5 11.5 0
    endloop
  endfacet
  facet normal 0 1 0
    outer loop
      vertex 11.5 11.5 0
      vertex 11.5 11.5 2
      vertex 34.5 11.5 0
    endloop
  endfacet
  facet normal 0 1 0
    outer loop
      vertex 34.5 11.5 0
      vertex 11.5 11.5 2
      vertex 34.5 11.5 2
    endloop
  endfacet
  facet normal 1 0 -0
    outer loop
      vertex 11.5 11.5 2
      vertex 11.5 11.5 0
      vertex 11.5 34.5 0
    endloop
  endfacet
  facet normal 1 0 0
    outer loop
      vertex 11.5 34.5 2
      vertex 11.5 11.5 2
      vertex 11.5 34.5 0
    endloop
  endfacet
  facet normal 0 1 0
    outer loop
      vertex -11.5 34.5 0
      vertex -11.5 34.5 2
      vertex 11.5 34.5 0
    endloop
  endfacet
  facet normal 0 1 0
    outer loop
      vertex 11.5 34.5 0
      vertex -11.5 34.5 2
      vertex 11.5 34.5 2
    endloop
  endfacet
  facet normal -1 -0 -0
    outer loop
      vertex -11.5 11.5 0
      vertex -11.5 11.5 2
      vertex -11.5 34.5 0
    endloop
  endfacet
  facet normal -1 0 0
    outer loop
      vertex -11.5 34.5 0
      vertex -11.5 11.5 2
      vertex -11.5 34.5 2
    endloop
  endfacet
  facet normal 0.62349 -0.781831 0
    outer loop
      vertex -25.445 1.94986 0
      vertex -25.445 1.94986 2
      vertex -26.8019 0.867767 2
    endloop
  endfacet
  facet normal 0.62349 -0.781831 0
    outer loop
      vertex -26.8019 0.867767 0
      vertex -25.445 1.94986 0
      vertex -26.8019 0.867767 2
    endloop
  endfacet
  facet normal 1 0 0
    outer loop
      vertex -26.8019 0.867767 0
      vertex -26.8019 0.867767 2
      vertex -26.8019 -0.867767 2
    endloop
  endfacet
  facet normal 1 0 0
    outer loop
      vertex -26.8019 -0.867767 0
      vertex -26.8019 0.867767 0
      vertex -26.8019 -0.867767 2
    endloop
  endfacet
  facet normal -0.222521 -0.974928 -0
    outer loop
      vertex -23.753 1.56366 0
      vertex -23.753 1.56366 2
      vertex -25.445 1.94986 2
    endloop
  endfacet
  facet normal -0.222521 -0.974928 -0
    outer loop
      vertex -25.445 1.94986 0
      vertex -23.753 1.56366 0
      vertex -25.445 1.94986 2
    endloop
  endfacet
  facet normal -0.900969 -0.433884 0
    outer loop
      vertex -23 0 2
      vertex -23.753 1.56366 2
      vertex -23 0 0
    endloop
  endfacet
  facet normal -0.900969 -0.433884 0
    outer loop
      vertex -23 0 0
      vertex -23.753 1.56366 2
      vertex -23.753 1.56366 0
    endloop
  endfacet
  facet normal -0.900969 0.433884 0
    outer loop
      vertex -23 0 2
      vertex -23 0 0
      vertex -23.753 -1.56366 2
    endloop
  endfacet
  facet normal -0.900969 0.433884 0
    outer loop
      vertex -23.753 -1.56366 2
      vertex -23 0 0
      vertex -23.753 -1.56366 0
    endloop
  endfacet
  facet normal -0.222521 0.974928 0
    outer loop
      vertex -23.753 -1.56366 2
      vertex -23.753 -1.56366 0
      vertex -25.445 -1.94986 2
    endloop
  endfacet
  facet normal -0.222521 0.974928 0
    outer loop
      vertex -25.445 -1.94986 2
      vertex -23.753 -1.56366 0
      vertex -25.445 -1.94986 0
    endloop
  endfacet
  facet normal 0.62349 0.781831 -0
    outer loop
      vertex -25.445 -1.94986 2
      vertex -25.445 -1.94986 0
      vertex -26.8019 -0.867767 2
    endloop
  endfacet
  facet normal 0.62349 0.781831 -0
    outer loop
      vertex -26.8019 -0.867767 2
      vertex -25.445 -1.94986 0
      vertex -26.8019 -0.867767 0
    endloop
  endfacet
  facet normal 0.994522 0.104528 0
    outer loop
      vertex -10 0 24
      vertex -9.78148 -2.07912 24
      vertex -9.78148 -2.07912 0
    endloop
  endfacet
  facet normal 0.994522 0.104528 0
    outer loop
      vertex -10 0 0
      vertex -10 0 24
      vertex -9.78148 -2.07912 0
    endloop
  endfacet
  facet normal 0.994522 -0.104528 0
    outer loop
      vertex -9.78148 2.07912 0
      vertex -9.78148 2.07912 24
      vertex -10 0 24
    endloop
  endfacet
  facet normal 0.994522 -0.104528 0
    outer loop
      vertex -10 0 0
      vertex -9.78148 2.07912 0
      vertex -10 0 24
    endloop
  endfacet
  facet normal 0.951057 -0.309017 0
    outer loop
      vertex -9.13546 4.06737 0
      vertex -9.13546 4.06737 24
      vertex -9.78148 2.07912 24
    endloop
  endfacet
  facet normal 0.951057 -0.309017 0
    outer loop
      vertex -9.78148 2.07912 0
      vertex -9.13546 4.06737 0
      vertex -9.78148 2.07912 24
    endloop
  endfacet
  facet normal 0.866025 -0.5 0
    outer loop
      vertex -8.09017 5.87785 0
      vertex -8.09017 5.87785 24
      vertex -9.13546 4.06737 24
    endloop
  endfacet
  facet normal 0.866025 -0.5 0
    outer loop
      vertex -9.13546 4.06737 0
      vertex -8.09017 5.87785 0
      vertex -9.13546 4.06737 24
    endloop
  endfacet
  facet normal 0.743145 -0.669131 0
    outer loop
      vertex -6.69131 7.43145 0
      vertex -6.69131 7.43145 24
      vertex -8.09017 5.87785 24
    endloop
  endfacet
  facet normal 0.743145 -0.669131 0
    outer loop
      vertex -8.09017 5.87785 0
      vertex -6.69131 7.43145 0
      vertex -8.09017 5.87785 24
    endloop
  endfacet
  facet normal 0.587785 -0.809017 0
    outer loop
      vertex -5 8.66025 0
      vertex -5 8.66025 24
      vertex -6.69131 7.43145 24
    endloop
  endfacet
  facet normal 0.587785 -0.809017 0
    outer loop
      vertex -6.69131 7.43145 0
      vertex -5 8.66025 0
      vertex -6.69131 7.43145 24
    endloop
  endfacet
  facet normal 0.406737 -0.913545 0
    outer loop
      vertex -3.09017 9.51056 0
      vertex -3.09017 9.51056 24
      vertex -5 8.66025 24
    endloop
  endfacet
  facet normal 0.406737 -0.913545 0
    outer loop
      vertex -5 8.66025 0
      vertex -3.09017 9.51056 0
      vertex -5 8.66025 24
    endloop
  endfacet
  facet normal 0.207912 -0.978148 0
    outer loop
      vertex -1.04529 9.94522 0
      vertex -1.04529 9.94522 24
      vertex -3.09017 9.51056 24
    endloop
  endfacet
  facet normal 0.207912 -0.978148 0
    outer loop
      vertex -3.09017 9.51056 0
      vertex -1.04529 9.94522 0
      vertex -3.09017 9.51056 24
    endloop
  endfacet
  facet normal 0 -1 0
    outer loop
      vertex 1.04529 9.94522 0
      vertex 1.04529 9.94522 24
      vertex -1.04529 9.94522 24
    endloop
  endfacet
  facet normal -0 -1 -0
    outer loop
      vertex -1.04529 9.94522 0
      vertex 1.04529 9.94522 0
      vertex -1.04529 9.94522 24
    endloop
  endfacet
  facet normal -0.207912 -0.978148 -0
    outer loop
      vertex 3.09017 9.51056 0
      vertex 3.09017 9.51056 24
      vertex 1.04529 9.94522 24
    endloop
  endfacet
  facet normal -0.207912 -0.978148 -0
    outer loop
      vertex 1.04529 9.94522 0
      vertex 3.09017 9.51056 0
      vertex 1.04529 9.94522 24
    endloop
  endfacet
  facet normal -0.406737 -0.913545 -0
    outer loop
      vertex 5 8.66025 0
      vertex 5 8.66025 24
      vertex 3.09017 9.51056 24
    endloop
  endfacet
  facet normal -0.406737 -0.913545 -0
    outer loop
      vertex 3.09017 9.51056 0
      vertex 5 8.66025 0
      vertex 3.09017 9.51056 24
    endloop
  endfacet
  facet normal -0.587785 -0.809017 -0
    outer loop
      vertex 6.69131 7.43145 0
      vertex 6.69131 7.43145 24
      vertex 5 8.66025 24
    endloop
  endfacet
  facet normal -0.587785 -0.809017 -0
    outer loop
      vertex 5 8.66025 0
      vertex 6.69131 7.43145 0
      vertex 5 8.66025 24
    endloop
  endfacet
  facet normal -0.743145 -0.669131 0
    outer loop
      vertex 8.09017 5.87785 24
      vertex 6.69131 7.43145 24
      vertex 8.09017 5.87785 0
    endloop
  endfacet
  facet normal -0.743145 -0.669131 0
    outer loop
      vertex 8.09017 5.87785 0
      vertex 6.69131 7.43145 24
      vertex 6.69131 7.43145 0
    endloop
  endfacet
  facet normal -0.866025 -0.5 0
    outer loop
      vertex 9.13546 4.06737 24
      vertex 8.09017 5.87785 24
      vertex 9.13546 4.06737 0
    endloop
  endfacet
  facet normal -0.866025 -0.5 0
    outer loop
      vertex 9.13546 4.06737 0
      vertex 8.09017 5.87785 24
      vertex 8.09017 5.87785 0
    endloop
  endfacet
  facet normal -0.951057 -0.309017 0
    outer loop
      vertex 9.78148 2.07912 24
      vertex 9.13546 4.06737 24
      vertex 9.78148 2.07912 0
    endloop
  endfacet
  facet normal -0.951057 -0.309017 0
    outer loop
      vertex 9.78148 2.07912 0
      vertex 9.13546 4.06737 24
      vertex 9.13546 4.06737 0
    endloop
  endfacet
  facet normal -0.994522 -0.104528 0
    outer loop
      vertex 10 0 24
      vertex 9.78148 2.07912 24
      vertex 10 0 0
    endloop
  endfacet
  facet normal -0.994522 -0.104528 0
    outer loop
      vertex 10 0 0
      vertex 9.78148 2.07912 24
      vertex 9.78148 2.07912 0
    endloop
  endfacet
  facet normal -0.994522 0.104528 0
    outer loop
      vertex 10 0 24
      vertex 10 0 0
      vertex 9.78148 -2.07912 24
    endloop
  endfacet
  facet normal -0.994522 0.104528 0
    outer loop
      vertex 9.78148 -2.07912 24
      vertex 10 0 0
      vertex 9.78148 -2.07912 0
    endloop
  endfacet
  facet normal -0.951057 0.309017 0
    outer loop
      vertex 9.78148 -2.07912 24
      vertex 9.78148 -2.07912 0
      vertex 9.13546 -4.06737 24
    endloop
  endfacet
  facet normal -0.951057 0.309017 0
    outer loop
      vertex 9.13546 -4.06737 24
      vertex 9.78148 -2.07912 0
      vertex 9.13546 -4.06737 0
    endloop
  endfacet
  facet normal -0.866025 0.5 0
    outer loop
      vertex 9.13546 -4.06737 24
      vertex 9.13546 -4.06737 0
      vertex 8.09017 -5.87785 24
    endloop
  endfacet
  facet normal -0.866025 0.5 0
    outer loop
      vertex 8.09017 -5.87785 24
      vertex 9.13546 -4.06737 0
      vertex 8.09017 -5.87785 0
    endloop
  endfacet
  facet normal -0.743145 0.669131 0
    outer loop
      vertex 8.09017 -5.87785 24
      vertex 8.09017 -5.87785 0
      vertex 6.69131 -7.43145 24
    endloop
  endfacet
  facet normal -0.743145 0.669131 0
    outer loop
      vertex 6.69131 -7.43145 24
      vertex 8.09017 -5.87785 0
      vertex 6.69131 -7.43145 0
    endloop
  endfacet
  facet normal -0.587785 0.809017 0
    outer loop
      vertex 6.69131 -7.43145 24
      vertex 6.69131 -7.43145 0
      vertex 5 -8.66025 24
    endloop
  endfacet
  facet normal -0.587785 0.809017 0
    outer loop
      vertex 5 -8.66025 24
      vertex 6.69131 -7.43145 0
      vertex 5 -8.66025 0
    endloop
  endfacet
  facet normal -0.406737 0.913545 0
    outer loop
      vertex 5 -8.66025 24
      vertex 5 -8.66025 0
      vertex 3.09017 -9.51056 24
    endloop
  endfacet
  facet normal -0.406737 0.913545 0
    outer loop
      vertex 3.09017 -9.51056 24
      vertex 5 -8.66025 0
      vertex 3.09017 -9.51056 0
    endloop
  endfacet
  facet normal -0.207912 0.978148 0
    outer loop
      vertex 3.09017 -9.51056 24
      vertex 3.09017 -9.51056 0
      vertex 1.04529 -9.94522 24
    endloop
  endfacet
  facet normal -0.207912 0.978148 0
    outer loop
      vertex 1.04529 -9.94522 24
      vertex 3.09017 -9.51056 0
      vertex 1.04529 -9.94522 0
    endloop
  endfacet
  facet normal 0 1 0
    outer loop
      vertex 1.04529 -9.94522 24
      vertex 1.04529 -9.94522 0
      vertex -1.04529 -9.94522 24
    endloop
  endfacet
  facet normal 0 1 -0
    outer loop
      vertex -1.04529 -9.94522 24
      vertex 1.04529 -9.94522 0
      vertex -1.04529 -9.94522 0
    endloop
  endfacet
  facet normal 0.207912 0.978148 -0
    outer loop
      vertex -1.04529 -9.94522 24
      vertex -1.04529 -9.94522 0
      vertex -3.09017 -9.51056 24
    endloop
  endfacet
  facet normal 0.207912 0.978148 -0
    outer loop
      vertex -3.09017 -9.51056 24
      vertex -1.04529 -9.94522 0
      vertex -3.09017 -9.51056 0
    endloop
  endfacet
  facet normal 0.406737 0.913545 -0
    outer loop
      vertex -3.09017 -9.51056 24
      vertex -3.09017 -9.51056 0
      vertex -5 -8.66025 24
    endloop
  endfacet
  facet normal 0.406737 0.913545 -0
    outer loop
      vertex -5 -8.66025 24
      vertex -3.09017 -9.51056 0
      vertex -5 -8.66025 0
    endloop
  endfacet
  facet normal 0.587785 0.809017 -0
    outer loop
      vertex -5 -8.66025 24
      vertex -5 -8.66025 0
      vertex -6.69131 -7.43145 24
    endloop
  endfacet
  facet normal 0.587785 0.809017 -0
    outer loop
      vertex -6.69131 -7.43145 24
      vertex -5 -8.66025 0
      vertex -6.69131 -7.43145 0
    endloop
  endfacet
  facet normal 0.743145 0.669131 0
    outer loop
      vertex -8.09017 -5.87785 24
      vertex -6.69131 -7.43145 24
      vertex -6.69131 -7.43145 0
    endloop
  endfacet
  facet normal 0.743145 0.669131 0
    outer loop
      vertex -8.09017 -5.87785 0
      vertex -8.09017 -5.87785 24
      vertex -6.69131 -7.43145 0
    endloop
  endfacet
  facet normal 0.866025 0.5 0
    outer loop
      vertex -9.13546 -4.06737 24
      vertex -8.09017 -5.87785 24
      vertex -8.09017 -5.87785 0
    endloop
  endfacet
  facet normal 0.866025 0.5 0
    outer loop
      vertex -9.13546 -4.06737 0
      vertex -9.13546 -4.06737 24
      vertex -8.09017 -5.87785 0
    endloop
  endfacet
  facet normal 0.951057 0.309017 0
    outer loop
      vertex -9.78148 -2.07912 24
      vertex -9.13546 -4.06737 24
      vertex -9.13546 -4.06737 0
    endloop
  endfacet
  facet normal 0.951057 0.309017 0
    outer loop
      vertex -9.78148 -2.07912 0
      vertex -9.78148 -2.07912 24
      vertex -9.13546 -4.06737 0
    endloop
  endfacet
  facet normal 0.62349 -0.781831 0
    outer loop
      vertex -0.445042 26.9499 0
      vertex -0.445042 26.9499 2
      vertex -1.80194 25.8678 2
    endloop
  endfacet
  facet normal 0.62349 -0.781831 0
    outer loop
      vertex -1.80194 25.8678 0
      vertex -0.445042 26.9499 0
      vertex -1.80194 25.8678 2
    endloop
  endfacet
  facet normal 1 0 0
    outer loop
      vertex -1.80194 25.8678 0
      vertex -1.80194 25.8678 2
      vertex -1.80194 24.1322 2
    endloop
  endfacet
  facet normal 1 0 0
    outer loop
      vertex -1.80194 24.1322 0
      vertex -1.80194 25.8678 0
      vertex -1.80194 24.1322 2
    endloop
  endfacet
  facet normal -0.222521 -0.974928 -0
    outer loop
      vertex 1.24698 26.5637 0
      vertex 1.24698 26.5637 2
      vertex -0.445042 26.9499 2
    endloop
  endfacet
  facet normal -0.222521 -0.974928 -0
    outer loop
      vertex -0.445042 26.9499 0
      vertex 1.24698 26.5637 0
      vertex -0.445042 26.9499 2
    endloop
  endfacet
  facet normal -0.900969 -0.433884 0
    outer loop
      vertex 2 25 2
      vertex 1.24698 26.5637 2
      vertex 2 25 0
    endloop
  endfacet
  facet normal -0.900969 -0.433884 0
    outer loop
      vertex 2 25 0
      vertex 1.24698 26.5637 2
      vertex 1.24698 26.5637 0
    endloop
  endfacet
  facet normal -0.900969 0.433884 0
    outer loop
      vertex 2 25 2
      vertex 2 25 0
      vertex 1.24698 23.4363 2
    endloop
  endfacet
  facet normal -0.900969 0.433884 0
    outer loop
      vertex 1.24698 23.4363 2
      vertex 2 25 0
      vertex 1.24698 23.4363 0
    endloop
  endfacet
  facet normal -0.222521 0.974928 0
    outer loop
      vertex 1.24698 23.4363 2
      vertex 1.24698 23.4363 0
      vertex -0.445042 23.0501 2
    endloop
  endfacet
  facet normal -0.222521 0.974928 0
    outer loop
      vertex -0.445042 23.0501 2
      vertex 1.24698 23.4363 0
      vertex -0.445042 23.0501 0
    endloop
  endfacet
  facet normal 0.62349 0.781831 -0
    outer loop
      vertex -0.445042 23.0501 2
      vertex -0.445042 23.0501 0
      vertex -1.80194 24.1322 2
    endloop
  endfacet
  facet normal 0.62349 0.781831 -0
    outer loop
      vertex -1.80194 24.1322 2
      vertex -0.445042 23.0501 0
      vertex -1.80194 24.1322 0
    endloop
  endfacet
  facet normal 0.62349 -0.781831 0
    outer loop
      vertex 24.555 1.94986 0
      vertex 24.555 1.94986 2
      vertex 23.1981 0.867767 2
    endloop
  endfacet
  facet normal 0.62349 -0.781831 0
    outer loop
      vertex 23.1981 0.867767 0
      vertex 24.555 1.94986 0
      vertex 23.1981 0.867767 2
    endloop
  endfacet
  facet normal 1 0 0
    outer loop
      vertex 23.1981 0.867767 0
      vertex 23.1981 0.867767 2
      vertex 23.1981 -0.867767 2
    endloop
  endfacet
  facet normal 1 0 0
    outer loop
      vertex 23.1981 -0.867767 0
      vertex 23.1981 0.867767 0
      vertex 23.1981 -0.867767 2
    endloop
  endfacet
  facet normal -0.222521 -0.974928 -0
    outer loop
      vertex 26.247 1.56366 0
      vertex 26.247 1.56366 2
      vertex 24.555 1.94986 2
    endloop
  endfacet
  facet normal -0.222521 -0.974928 -0
    outer loop
      vertex 24.555 1.94986 0
      vertex 26.247 1.56366 0
      vertex 24.555 1.94986 2
    endloop
  endfacet
  facet normal -0.900969 -0.433884 0
    outer loop
      vertex 27 0 2
      vertex 26.247 1.56366 2
      vertex 27 0 0
    endloop
  endfacet
  facet normal -0.900969 -0.433884 0
    outer loop
      vertex 27 0 0
      vertex 26.247 1.56366 2
      vertex 26.247 1.56366 0
    endloop
  endfacet
  facet normal -0.900969 0.433884 0
    outer loop
      vertex 27 0 2
      vertex 27 0 0
      vertex 26.247 -1.56366 2
    endloop
  endfacet
  facet normal -0.900969 0.433884 0
    outer loop
      vertex 26.247 -1.56366 2
      vertex 27 0 0
      vertex 26.247 -1.56366 0
    endloop
  endfacet
  facet normal -0.222521 0.974928 0
    outer loop
      vertex 26.247 -1.56366 2
      vertex 26.247 -1.56366 0
      vertex 24.555 -1.94986 2
    endloop
  endfacet
  facet normal -0.222521 0.974928 0
    outer loop
      vertex 24.555 -1.94986 2
      vertex 26.247 -1.56366 0
      vertex 24.555 -1.94986 0
    endloop
  endfacet
  facet normal 0.62349 0.781831 -0
    outer loop
      vertex 24.555 -1.94986 2
      vertex 24.555 -1.94986 0
      vertex 23.1981 -0.867767 2
    endloop
  endfacet
  facet normal 0.62349 0.781831 -0
    outer loop
      vertex 23.1981 -0.867767 2
      vertex 24.555 -1.94986 0
      vertex 23.1981 -0.867767 0
    endloop
  endfacet
  facet normal 0.743145 -0.669131 0
    outer loop
      vertex 10.037 -11.1472 24
      vertex 10.037 -11.1472 2
      vertex 12.1353 -8.81678 2
    endloop
  endfacet
  facet normal 0.743145 -0.669131 0
    outer loop
      vertex 12.1353 -8.81678 24
      vertex 10.037 -11.1472 24
      vertex 12.1353 -8.81678 2
    endloop
  endfacet
  facet normal 0.866025 -0.5 0
    outer loop
      vertex 12.1353 -8.81678 24
      vertex 12.1353 -8.81678 2
      vertex 13.7032 -6.10105 2
    endloop
  endfacet
  facet normal 0.866025 -0.5 0
    outer loop
      vertex 13.7032 -6.10105 24
      vertex 12.1353 -8.81678 24
      vertex 13.7032 -6.10105 2
    endloop
  endfacet
  facet normal 0.951057 -0.309017 0
    outer loop
      vertex 13.7032 -6.10105 24
      vertex 13.7032 -6.10105 2
      vertex 14.6722 -3.11867 2
    endloop
  endfacet
  facet normal 0.951057 -0.309017 0
    outer loop
      vertex 14.6722 -3.11867 24
      vertex 13.7032 -6.10105 24
      vertex 14.6722 -3.11867 2
    endloop
  endfacet
  facet normal 0.994522 -0.104528 0
    outer loop
      vertex 14.6722 -3.11867 24
      vertex 14.6722 -3.11867 2
      vertex 15 0 2
    endloop
  endfacet
  facet normal 0.994522 -0.104528 0
    outer loop
      vertex 15 0 24
      vertex 14.6722 -3.11867 24
      vertex 15 0 2
    endloop
  endfacet
  facet normal 0.994522 0.104528 0
    outer loop
      vertex 15 0 2
      vertex 14.6722 3.11867 2
      vertex 14.6722 3.11867 24
    endloop
  endfacet
  facet normal 0.994522 0.104528 -0
    outer loop
      vertex 15 0 24
      vertex 15 0 2
      vertex 14.6722 3.11867 24
    endloop
  endfacet
  facet normal 0.951057 0.309017 0
    outer loop
      vertex 14.6722 3.11867 2
      vertex 13.7032 6.10105 2
      vertex 13.7032 6.10105 24
    endloop
  endfacet
  facet normal 0.951057 0.309017 -0
    outer loop
      vertex 14.6722 3.11867 24
      vertex 14.6722 3.11867 2
      vertex 13.7032 6.10105 24
    endloop
  endfacet
  facet normal 0.866025 0.5 0
    outer loop
      vertex 13.7032 6.10105 2
      vertex 12.1353 8.81678 2
      vertex 12.1353 8.81678 24
    endloop
  endfacet
  facet normal 0.866025 0.5 -0
    outer loop
      vertex 13.7032 6.10105 24
      vertex 13.7032 6.10105 2
      vertex 12.1353 8.81678 24
    endloop
  endfacet
  facet normal 0.743145 0.669131 0
    outer loop
      vertex 12.1353 8.81678 2
      vertex 10.037 11.1472 2
      vertex 10.037 11.1472 24
    endloop
  endfacet
  facet normal 0.743145 0.669131 -0
    outer loop
      vertex 12.1353 8.81678 24
      vertex 12.1353 8.81678 2
      vertex 10.037 11.1472 24
    endloop
  endfacet
  facet normal 0.587785 0.809017 0
    outer loop
      vertex 7.5 12.9904 2
      vertex 7.5 12.9904 24
      vertex 10.037 11.1472 2
    endloop
  endfacet
  facet normal 0.587785 0.809017 0
    outer loop
      vertex 10.037 11.1472 2
      vertex 7.5 12.9904 24
      vertex 10.037 11.1472 24
    endloop
  endfacet
  facet normal 0.406737 0.913545 0
    outer loop
      vertex 4.63525 14.2658 2
      vertex 4.63525 14.2658 24
      vertex 7.5 12.9904 2
    endloop
  endfacet
  facet normal 0.406737 0.913545 0
    outer loop
      vertex 7.5 12.9904 2
      vertex 4.63525 14.2658 24
      vertex 7.5 12.9904 24
    endloop
  endfacet
  facet normal 0.207911 0.978148 0
    outer loop
      vertex 1.56793 14.9178 2
      vertex 1.56793 14.9178 24
      vertex 4.63525 14.2658 2
    endloop
  endfacet
  facet normal 0.207911 0.978148 0
    outer loop
      vertex 4.63525 14.2658 2
      vertex 1.56793 14.9178 24
      vertex 4.63525 14.2658 24
    endloop
  endfacet
  facet normal 0 1 0
    outer loop
      vertex -1.56793 14.9178 2
      vertex -1.56793 14.9178 24
      vertex 1.56793 14.9178 2
    endloop
  endfacet
  facet normal 0 1 0
    outer loop
      vertex 1.56793 14.9178 2
      vertex -1.56793 14.9178 24
      vertex 1.56793 14.9178 24
    endloop
  endfacet
  facet normal -0.207911 0.978148 0
    outer loop
      vertex -4.63525 14.2658 2
      vertex -4.63525 14.2658 24
      vertex -1.56793 14.9178 2
    endloop
  endfacet
  facet normal -0.207911 0.978148 0
    outer loop
      vertex -1.56793 14.9178 2
      vertex -4.63525 14.2658 24
      vertex -1.56793 14.9178 24
    endloop
  endfacet
  facet normal -0.406737 0.913545 0
    outer loop
      vertex -7.5 12.9904 2
      vertex -7.5 12.9904 24
      vertex -4.63525 14.2658 2
    endloop
  endfacet
  facet normal -0.406737 0.913545 0
    outer loop
      vertex -4.63525 14.2658 2
      vertex -7.5 12.9904 24
      vertex -4.63525 14.2658 24
    endloop
  endfacet
  facet normal -0.587785 0.809017 0
    outer loop
      vertex -10.037 11.1472 2
      vertex -10.037 11.1472 24
      vertex -7.5 12.9904 2
    endloop
  endfacet
  facet normal -0.587785 0.809017 0
    outer loop
      vertex -7.5 12.9904 2
      vertex -10.037 11.1472 24
      vertex -7.5 12.9904 24
    endloop
  endfacet
  facet normal -0.743145 0.669131 0
    outer loop
      vertex -12.1353 8.81678 2
      vertex -12.1353 8.81678 24
      vertex -10.037 11.1472 2
    endloop
  endfacet
  facet normal -0.743145 0.669131 0
    outer loop
      vertex -10.037 11.1472 2
      vertex -12.1353 8.81678 24
      vertex -10.037 11.1472 24
    endloop
  endfacet
  facet normal -0.866025 0.5 0
    outer loop
      vertex -13.7032 6.10105 2
      vertex -13.7032 6.10105 24
      vertex -12.1353 8.81678 2
    endloop
  endfacet
  facet normal -0.866025 0.5 0
    outer loop
      vertex -12.1353 8.81678 2
      vertex -13.7032 6.10105 24
      vertex -12.1353 8.81678 24
    endloop
  endfacet
  facet normal -0.951057 0.309017 0
    outer loop
      vertex -14.6722 3.11867 2
      vertex -14.6722 3.11867 24
      vertex -13.7032 6.10105 2
    endloop
  endfacet
  facet normal -0.951057 0.309017 0
    outer loop
      vertex -13.7032 6.10105 2
      vertex -14.6722 3.11867 24
      vertex -13.7032 6.10105 24
    endloop
  endfacet
  facet normal -0.994522 0.104528 0
    outer loop
      vertex -15 0 2
      vertex -15 0 24
      vertex -14.6722 3.11867 2
    endloop
  endfacet
  facet normal -0.994522 0.104528 0
    outer loop
      vertex -14.6722 3.11867 2
      vertex -15 0 24
      vertex -14.6722 3.11867 24
    endloop
  endfacet
  facet normal -0.994522 -0.104528 -0
    outer loop
      vertex -15 0 2
      vertex -14.6722 -3.11867 2
      vertex -15 0 24
    endloop
  endfacet
  facet normal -0.994522 -0.104528 0
    outer loop
      vertex -15 0 24
      vertex -14.6722 -3.11867 2
      vertex -14.6722 -3.11867 24
    endloop
  endfacet
  facet normal -0.951057 -0.309017 -0
    outer loop
      vertex -14.6722 -3.11867 2
      vertex -13.7032 -6.10105 2
      vertex -14.6722 -3.11867 24
    endloop
  endfacet
  facet normal -0.951057 -0.309017 0
    outer loop
      vertex -14.6722 -3.11867 24
      vertex -13.7032 -6.10105 2
      vertex -13.7032 -6.10105 24
    endloop
  endfacet
  facet normal -0.866025 -0.5 -0
    outer loop
      vertex -13.7032 -6.10105 2
      vertex -12.1353 -8.81678 2
      vertex -13.7032 -6.10105 24
    endloop
  endfacet
  facet normal -0.866025 -0.5 0
    outer loop
      vertex -13.7032 -6.10105 24
      vertex -12.1353 -8.81678 2
      vertex -12.1353 -8.81678 24
    endloop
  endfacet
  facet normal -0.743145 -0.669131 -0
    outer loop
      vertex -12.1353 -8.81678 2
      vertex -10.037 -11.1472 2
      vertex -12.1353 -8.81678 24
    endloop
  endfacet
  facet normal -0.743145 -0.669131 0
    outer loop
      vertex -12.1353 -8.81678 24
      vertex -10.037 -11.1472 2
      vertex -10.037 -11.1472 24
    endloop
  endfacet
  facet normal 0 0 1
    outer loop
      vertex -14.6722 3.11867 24
      vertex -15 0 24
      vertex -14.6722 -3.11867 24
    endloop
  endfacet
  facet normal 0 0 1
    outer loop
      vertex -12.1353 -8.81678 24
      vertex -14.6722 3.11867 24
      vertex -13.7032 -6.10105 24
    endloop
  endfacet
  facet normal 0 0 1
    outer loop
      vertex -13.7032 -6.10105 24
      vertex -14.6722 3.11867 24
      vertex -14.6722 -3.11867 24
    endloop
  endfacet
  facet normal 0 0 1
    outer loop
      vertex -10.037 -11.1472 24
      vertex -14.6722 3.11867 24
      vertex -12.1353 -8.81678 24
    endloop
  endfacet
  facet normal 0 0 1
    outer loop
      vertex -7.5 -12.9904 24
      vertex -14.6722 3.11867 24
      vertex -10.037 -11.1472 24
    endloop
  endfacet
  facet normal 0 0 1
    outer loop
      vertex -4.63525 -14.2658 24
      vertex -14.6722 3.11867 24
      vertex -7.5 -12.9904 24
    endloop
  endfacet
  facet normal 0 0 1
    outer loop
      vertex -1.56793 -14.9178 24
      vertex -14.6722 3.11867 24
      vertex -4.63525 -14.2658 24
    endloop
  endfacet
  facet normal -0 -0 1
    outer loop
      vertex -8.09017 -5.87785 24
      vertex -14.6722 3.11867 24
      vertex -1.56793 -14.9178 24
    endloop
  endfacet
  facet normal 0 -0 1
    outer loop
      vertex 8.09017 -5.87785 24
      vertex 6.69131 -7.43145 24
      vertex 12.1353 -8.81678 24
    endloop
  endfacet
  facet normal 0 0 1
    outer loop
      vertex -9.78148 2.07912 24
      vertex -9.13546 4.06737 24
      vertex -14.6722 3.11867 24
    endloop
  endfacet
  facet normal 0 -0 1
    outer loop
      vertex 6.69131 -7.43145 24
      vertex 5 -8.66025 24
      vertex 10.037 -11.1472 24
    endloop
  endfacet
  facet normal 0 0 1
    outer loop
      vertex 8.09017 5.87785 24
      vertex 9.13546 4.06737 24
      vertex 13.7032 6.10105 24
    endloop
  endfacet
  facet normal 0 0 1
    outer loop
      vertex -1.04529 9.94522 24
      vertex 1.04529 9.94522 24
      vertex 7.5 12.9904 24
    endloop
  endfacet
  facet normal 0 0 1
    outer loop
      vertex 3.09017 9.51056 24
      vertex 5 8.66025 24
      vertex 10.037 11.1472 24
    endloop
  endfacet
  facet normal 0 -0 1
    outer loop
      vertex 1.56793 14.9178 24
      vertex -14.6722 3.11867 24
      vertex 4.63525 14.2658 24
    endloop
  endfacet
  facet normal 0 -0 1
    outer loop
      vertex -1.56793 14.9178 24
      vertex -14.6722 3.11867 24
      vertex 1.56793 14.9178 24
    endloop
  endfacet
  facet normal 0 -0 1
    outer loop
      vertex -4.63525 14.2658 24
      vertex -14.6722 3.11867 24
      vertex -1.56793 14.9178 24
    endloop
  endfacet
  facet normal 0 -0 1
    outer loop
      vertex -7.5 12.9904 24
      vertex -14.6722 3.11867 24
      vertex -4.63525 14.2658 24
    endloop
  endfacet
  facet normal 0 -0 1
    outer loop
      vertex -10.037 11.1472 24
      vertex -14.6722 3.11867 24
      vertex -7.5 12.9904 24
    endloop
  endfacet
  facet normal 0 -0 1
    outer loop
      vertex -12.1353 8.81678 24
      vertex -14.6722 3.11867 24
      vertex -10.037 11.1472 24
    endloop
  endfacet
  facet normal 0 -0 1
    outer loop
      vertex -13.7032 6.10105 24
      vertex -14.6722 3.11867 24
      vertex -12.1353 8.81678 24
    endloop
  endfacet
  facet normal 0 0 1
    outer loop
      vertex -8.09017 -5.87785 24
      vertex -9.13546 -4.06737 24
      vertex -14.6722 3.11867 24
    endloop
  endfacet
  facet normal 0 -0 1
    outer loop
      vertex 9.13546 -4.06737 24
      vertex 8.09017 -5.87785 24
      vertex 13.7032 -6.10105 24
    endloop
  endfacet
  facet normal 0 0 1
    outer loop
      vertex 9.13546 4.06737 24
      vertex 9.78148 2.07912 24
      vertex 14.6722 3.11867 24
    endloop
  endfacet
  facet normal 0 0 1
    outer loop
      vertex -5 8.66025 24
      vertex -3.09017 9.51056 24
      vertex 4.63525 14.2658 24
    endloop
  endfacet
  facet normal 0 0 1
    outer loop
      vertex 5 8.66025 24
      vertex 6.69131 7.43145 24
      vertex 12.1353 8.81678 24
    endloop
  endfacet
  facet normal 0 0 1
    outer loop
      vertex -5 8.66025 24
      vertex -14.6722 3.11867 24
      vertex -6.69131 7.43145 24
    endloop
  endfacet
  facet normal 0 0 1
    outer loop
      vertex 4.63525 14.2658 24
      vertex -14.6722 3.11867 24
      vertex -5 8.66025 24
    endloop
  endfacet
  facet normal 0 -0 1
    outer loop
      vertex 4.63525 14.2658 24
      vertex -3.09017 9.51056 24
      vertex 7.5 12.9904 24
    endloop
  endfacet
  facet normal 0 0 1
    outer loop
      vertex -3.09017 9.51056 24
      vertex -1.04529 9.94522 24
      vertex 7.5 12.9904 24
    endloop
  endfacet
  facet normal 0 -0 1
    outer loop
      vertex 7.5 12.9904 24
      vertex 1.04529 9.94522 24
      vertex 10.037 11.1472 24
    endloop
  endfacet
  facet normal 0 0 1
    outer loop
      vertex 1.04529 9.94522 24
      vertex 3.09017 9.51056 24
      vertex 10.037 11.1472 24
    endloop
  endfacet
  facet normal 0 -0 1
    outer loop
      vertex 10.037 11.1472 24
      vertex 5 8.66025 24
      vertex 12.1353 8.81678 24
    endloop
  endfacet
  facet normal -0 0 1
    outer loop
      vertex -8.09017 5.87785 24
      vertex -6.69131 7.43145 24
      vertex -14.6722 3.11867 24
    endloop
  endfacet
  facet normal 0 -0 1
    outer loop
      vertex 12.1353 8.81678 24
      vertex 6.69131 7.43145 24
      vertex 13.7032 6.10105 24
    endloop
  endfacet
  facet normal 0 0 1
    outer loop
      vertex 6.69131 7.43145 24
      vertex 8.09017 5.87785 24
      vertex 13.7032 6.10105 24
    endloop
  endfacet
  facet normal 0 -0 1
    outer loop
      vertex 13.7032 6.10105 24
      vertex 9.13546 4.06737 24
      vertex 14.6722 3.11867 24
    endloop
  endfacet
  facet normal 0 0 1
    outer loop
      vertex 9.78148 2.07912 24
      vertex 10 0 24
      vertex 15 0 24
    endloop
  endfacet
  facet normal 0 -0 1
    outer loop
      vertex 14.6722 3.11867 24
      vertex 9.78148 2.07912 24
      vertex 15 0 24
    endloop
  endfacet
  facet normal -0 0 1
    outer loop
      vertex -9.13546 4.06737 24
      vertex -8.09017 5.87785 24
      vertex -14.6722 3.11867 24
    endloop
  endfacet
  facet normal 0 0 1
    outer loop
      vertex 15 0 24
      vertex 10 0 24
      vertex 14.6722 -3.11867 24
    endloop
  endfacet
  facet normal -0 0 1
    outer loop
      vertex 14.6722 -3.11867 24
      vertex 9.78148 -2.07912 24
      vertex 13.7032 -6.10105 24
    endloop
  endfacet
  facet normal 0 -0 1
    outer loop
      vertex 9.78148 -2.07912 24
      vertex 9.13546 -4.06737 24
      vertex 13.7032 -6.10105 24
    endloop
  endfacet
  facet normal -0 0 1
    outer loop
      vertex 13.7032 -6.10105 24
      vertex 8.09017 -5.87785 24
      vertex 12.1353 -8.81678 24
    endloop
  endfacet
  facet normal 0 -0 1
    outer loop
      vertex 10 0 24
      vertex 9.78148 -2.07912 24
      vertex 14.6722 -3.11867 24
    endloop
  endfacet
  facet normal -0 0 1
    outer loop
      vertex 12.1353 -8.81678 24
      vertex 6.69131 -7.43145 24
      vertex 10.037 -11.1472 24
    endloop
  endfacet
  facet normal -0 0 1
    outer loop
      vertex 10.037 -11.1472 24
      vertex 5 -8.66025 24
      vertex 7.5 -12.9904 24
    endloop
  endfacet
  facet normal 0 -0 1
    outer loop
      vertex 5 -8.66025 24
      vertex 3.09017 -9.51056 24
      vertex 7.5 -12.9904 24
    endloop
  endfacet
  facet normal -0 0 1
    outer loop
      vertex 7.5 -12.9904 24
      vertex 1.04529 -9.94522 24
      vertex 4.63525 -14.2658 24
    endloop
  endfacet
  facet normal -0 0 1
    outer loop
      vertex 4.63525 -14.2658 24
      vertex -1.04529 -9.94522 24
      vertex 1.56793 -14.9178 24
    endloop
  endfacet
  facet normal -0 -0 1
    outer loop
      vertex -1.04529 -9.94522 24
      vertex -3.09017 -9.51056 24
      vertex 1.56793 -14.9178 24
    endloop
  endfacet
  facet normal -0 0 1
    outer loop
      vertex 1.56793 -14.9178 24
      vertex -5 -8.66025 24
      vertex -1.56793 -14.9178 24
    endloop
  endfacet
  facet normal -0 -0 1
    outer loop
      vertex -5 -8.66025 24
      vertex -6.69131 -7.43145 24
      vertex -1.56793 -14.9178 24
    endloop
  endfacet
  facet normal -0 -0 1
    outer loop
      vertex -6.69131 -7.43145 24
      vertex -8.09017 -5.87785 24
      vertex -1.56793 -14.9178 24
    endloop
  endfacet
  facet normal -0 -0 1
    outer loop
      vertex -3.09017 -9.51056 24
      vertex -5 -8.66025 24
      vertex 1.56793 -14.9178 24
    endloop
  endfacet
  facet normal 0 0 1
    outer loop
      vertex -9.13546 -4.06737 24
      vertex -9.78148 -2.07912 24
      vertex -14.6722 3.11867 24
    endloop
  endfacet
  facet normal 0 0 1
    outer loop
      vertex -9.78148 -2.07912 24
      vertex -10 0 24
      vertex -14.6722 3.11867 24
    endloop
  endfacet
  facet normal 0 -0 1
    outer loop
      vertex 1.04529 -9.94522 24
      vertex -1.04529 -9.94522 24
      vertex 4.63525 -14.2658 24
    endloop
  endfacet
  facet normal 0 -0 1
    outer loop
      vertex 3.09017 -9.51056 24
      vertex 1.04529 -9.94522 24
      vertex 7.5 -12.9904 24
    endloop
  endfacet
  facet normal 0 0 1
    outer loop
      vertex -10 0 24
      vertex -9.78148 2.07912 24
      vertex -14.6722 3.11867 24
    endloop
  endfacet
endsolid OpenSCAD_Model
