solid OpenSCAD_Model
  facet normal -1 -0 -0
    outer loop
      vertex -22.5 -7.5 0
      vertex -22.5 -7.5 1
      vertex -22.5 7.5 0
    endloop
  endfacet
  facet normal -1 0 0
    outer loop
      vertex -22.5 7.5 0
      vertex -22.5 -7.5 1
      vertex -22.5 7.5 1
    endloop
  endfacet
  facet normal 0 -1 0
    outer loop
      vertex -22.5 -7.5 1
      vertex -22.5 -7.5 0
      vertex -6.59695 -7.5 0
    endloop
  endfacet
  facet normal 0 -1 0
    outer loop
      vertex -6.59695 -7.5 1
      vertex -22.5 -7.5 1
      vertex -6.59695 -7.5 0
    endloop
  endfacet
  facet normal 0 -0 -1
    outer loop
      vertex -15.753 1.56366 0
      vertex -22.5 7.5 0
      vertex -7.5 7.5 0
    endloop
  endfacet
  facet normal 0 0 -1
    outer loop
      vertex -6.59695 -7.5 0
      vertex -7.5 7.5 0
      vertex -7.5 22.5 0
    endloop
  endfacet
  facet normal 0 -0 -1
    outer loop
      vertex -0.445042 18.9499 0
      vertex -7.5 22.5 0
      vertex 7.5 22.5 0
    endloop
  endfacet
  facet normal 0 0 -1
    outer loop
      vertex 3.28169 5.023 0
      vertex 7.5 22.5 0
      vertex 7.5 7.5 0
    endloop
  endfacet
  facet normal 0 0 -1
    outer loop
      vertex 6 0 0
      vertex 7.5 7.5 0
      vertex 22.5 7.5 0
    endloop
  endfacet
  facet normal -0 0 -1
    outer loop
      vertex 19 0 0
      vertex 22.5 7.5 0
      vertex 22.5 -7.5 0
    endloop
  endfacet
  facet normal 0 0 -1
    outer loop
      vertex -3.09017 -9.51056 0
      vertex 1.04529 -9.94522 0
      vertex -1.04529 -9.94522 0
    endloop
  endfacet
  facet normal 0 0 -1
    outer loop
      vertex 6.59695 -7.5 0
      vertex 5 -8.66025 0
      vertex -6.59695 -7.5 0
    endloop
  endfacet
  facet normal 0 0 -1
    outer loop
      vertex -15.753 -1.56366 0
      vertex -6.59695 -7.5 0
      vertex -17.445 -1.94986 0
    endloop
  endfacet
  facet normal 0 0 -1
    outer loop
      vertex -5 -8.66025 0
      vertex 3.09017 -9.51056 0
      vertex -3.09017 -9.51056 0
    endloop
  endfacet
  facet normal 0 0 -1
    outer loop
      vertex 3.09017 -9.51056 0
      vertex 1.04529 -9.94522 0
      vertex -3.09017 -9.51056 0
    endloop
  endfacet
  facet normal 0 0 -1
    outer loop
      vertex 5 -8.66025 0
      vertex 3.09017 -9.51056 0
      vertex -5 -8.66025 0
    endloop
  endfacet
  facet normal 0 -0 -1
    outer loop
      vertex -22.5 -7.5 0
      vertex -22.5 7.5 0
      vertex -18.8019 0.867767 0
    endloop
  endfacet
  facet normal 0 0 -1
    outer loop
      vertex -2.41017 5.49464 0
      vertex 7.5 22.5 0
      vertex -0.495476 5.97951 0
    endloop
  endfacet
  facet normal 0 0 -1
    outer loop
      vertex -22.5 -7.5 0
      vertex -18.8019 0.867767 0
      vertex -18.8019 -0.867767 0
    endloop
  endfacet
  facet normal 0 0 -1
    outer loop
      vertex -22.5 -7.5 0
      vertex -18.8019 -0.867767 0
      vertex -17.445 -1.94986 0
    endloop
  endfacet
  facet normal -0 0 -1
    outer loop
      vertex -22.5 -7.5 0
      vertex -17.445 -1.94986 0
      vertex -6.59695 -7.5 0
    endloop
  endfacet
  facet normal 0 0 -1
    outer loop
      vertex -15 0 0
      vertex -6.59695 -7.5 0
      vertex -15.753 -1.56366 0
    endloop
  endfacet
  facet normal 0 0 -1
    outer loop
      vertex -4.06369 -4.41434 0
      vertex -6.59695 -7.5 0
      vertex -5.27684 -2.85568 0
    endloop
  endfacet
  facet normal 0 0 -1
    outer loop
      vertex -15.753 1.56366 0
      vertex -6.59695 -7.5 0
      vertex -15 0 0
    endloop
  endfacet
  facet normal -0 -0 -1
    outer loop
      vertex -17.445 1.94986 0
      vertex -22.5 7.5 0
      vertex -15.753 1.56366 0
    endloop
  endfacet
  facet normal 0 0 -1
    outer loop
      vertex -6.59695 -7.5 0
      vertex -15.753 1.56366 0
      vertex -7.5 7.5 0
    endloop
  endfacet
  facet normal 0 -0 -1
    outer loop
      vertex -18.8019 0.867767 0
      vertex -22.5 7.5 0
      vertex -17.445 1.94986 0
    endloop
  endfacet
  facet normal 0 -0 -1
    outer loop
      vertex -6.59695 -7.5 0
      vertex -7.5 22.5 0
      vertex -5.91817 0.987568 0
    endloop
  endfacet
  facet normal 0 0 -1
    outer loop
      vertex -6.59695 -7.5 0
      vertex -5.91817 0.987568 0
      vertex -5.91817 -0.987568 0
    endloop
  endfacet
  facet normal 0 0 -1
    outer loop
      vertex -6.59695 -7.5 0
      vertex -5.91817 -0.987568 0
      vertex -5.27684 -2.85568 0
    endloop
  endfacet
  facet normal 0 0 -1
    outer loop
      vertex -2.41017 -5.49464 0
      vertex -6.59695 -7.5 0
      vertex -4.06369 -4.41434 0
    endloop
  endfacet
  facet normal 0 0 -1
    outer loop
      vertex 1.47291 -5.8164 0
      vertex 6.59695 -7.5 0
      vertex -0.495476 -5.97951 0
    endloop
  endfacet
  facet normal 0 0 -1
    outer loop
      vertex -6.59695 -7.5 0
      vertex -2.41017 -5.49464 0
      vertex -0.495476 -5.97951 0
    endloop
  endfacet
  facet normal -0 0 -1
    outer loop
      vertex -6.59695 -7.5 0
      vertex -0.495476 -5.97951 0
      vertex 6.59695 -7.5 0
    endloop
  endfacet
  facet normal -0 0 -1
    outer loop
      vertex 6 0 0
      vertex 22.5 7.5 0
      vertex 5.6749 -1.9482 0
    endloop
  endfacet
  facet normal -0 0 -1
    outer loop
      vertex 4.73484 -3.68528 0
      vertex 22.5 7.5 0
      vertex 3.28169 -5.023 0
    endloop
  endfacet
  facet normal -0 0 -1
    outer loop
      vertex 1.47291 -5.8164 0
      vertex 3.28169 -5.023 0
      vertex 6.59695 -7.5 0
    endloop
  endfacet
  facet normal -0 0 -1
    outer loop
      vertex 5.6749 -1.9482 0
      vertex 22.5 7.5 0
      vertex 4.73484 -3.68528 0
    endloop
  endfacet
  facet normal -0 0 -1
    outer loop
      vertex 5.6749 1.9482 0
      vertex 7.5 7.5 0
      vertex 6 0 0
    endloop
  endfacet
  facet normal -0 0 -1
    outer loop
      vertex 4.73484 3.68528 0
      vertex 7.5 7.5 0
      vertex 5.6749 1.9482 0
    endloop
  endfacet
  facet normal -0 0 -1
    outer loop
      vertex 1.47291 5.8164 0
      vertex 7.5 22.5 0
      vertex 3.28169 5.023 0
    endloop
  endfacet
  facet normal -0 0 -1
    outer loop
      vertex -0.495476 5.97951 0
      vertex 7.5 22.5 0
      vertex 1.47291 5.8164 0
    endloop
  endfacet
  facet normal 0 0 -1
    outer loop
      vertex -4.06369 4.41434 0
      vertex 7.5 22.5 0
      vertex -2.41017 5.49464 0
    endloop
  endfacet
  facet normal 0 -0 -1
    outer loop
      vertex -5.27684 2.85568 0
      vertex -7.5 22.5 0
      vertex -4.06369 4.41434 0
    endloop
  endfacet
  facet normal -0 0 -1
    outer loop
      vertex 1.24698 18.5637 0
      vertex 7.5 22.5 0
      vertex 2 17 0
    endloop
  endfacet
  facet normal 0 -0 -1
    outer loop
      vertex -5.91817 0.987568 0
      vertex -7.5 22.5 0
      vertex -5.27684 2.85568 0
    endloop
  endfacet
  facet normal 0 -0 -1
    outer loop
      vertex -4.06369 4.41434 0
      vertex -7.5 22.5 0
      vertex -1.80194 17.8678 0
    endloop
  endfacet
  facet normal 0 0 -1
    outer loop
      vertex -4.06369 4.41434 0
      vertex -1.80194 17.8678 0
      vertex -1.80194 16.1322 0
    endloop
  endfacet
  facet normal 0 0 -1
    outer loop
      vertex -4.06369 4.41434 0
      vertex -1.80194 16.1322 0
      vertex -0.445042 15.0501 0
    endloop
  endfacet
  facet normal 0 0 -1
    outer loop
      vertex -4.06369 4.41434 0
      vertex -0.445042 15.0501 0
      vertex 1.24698 15.4363 0
    endloop
  endfacet
  facet normal 0 0 -1
    outer loop
      vertex -4.06369 4.41434 0
      vertex 1.24698 15.4363 0
      vertex 7.5 22.5 0
    endloop
  endfacet
  facet normal 0 0 -1
    outer loop
      vertex 1.24698 15.4363 0
      vertex 2 17 0
      vertex 7.5 22.5 0
    endloop
  endfacet
  facet normal -0 0 -1
    outer loop
      vertex -0.445042 18.9499 0
      vertex 7.5 22.5 0
      vertex 1.24698 18.5637 0
    endloop
  endfacet
  facet normal 0 -0 -1
    outer loop
      vertex -1.80194 17.8678 0
      vertex -7.5 22.5 0
      vertex -0.445042 18.9499 0
    endloop
  endfacet
  facet normal 0 0 -1
    outer loop
      vertex 15.1981 -0.867767 0
      vertex 6.59695 -7.5 0
      vertex 15.1981 0.867767 0
    endloop
  endfacet
  facet normal 0 0 -1
    outer loop
      vertex 3.28169 -5.023 0
      vertex 22.5 7.5 0
      vertex 15.1981 0.867767 0
    endloop
  endfacet
  facet normal -0 0 -1
    outer loop
      vertex 3.28169 -5.023 0
      vertex 15.1981 0.867767 0
      vertex 6.59695 -7.5 0
    endloop
  endfacet
  facet normal -0 0 -1
    outer loop
      vertex 18.247 1.56366 0
      vertex 22.5 7.5 0
      vertex 19 0 0
    endloop
  endfacet
  facet normal -0 0 -1
    outer loop
      vertex 6.59695 -7.5 0
      vertex 15.1981 -0.867767 0
      vertex 22.5 -7.5 0
    endloop
  endfacet
  facet normal -0 0 -1
    outer loop
      vertex 16.555 1.94986 0
      vertex 22.5 7.5 0
      vertex 18.247 1.56366 0
    endloop
  endfacet
  facet normal 0 0 -1
    outer loop
      vertex 15.1981 -0.867767 0
      vertex 16.555 -1.94986 0
      vertex 22.5 -7.5 0
    endloop
  endfacet
  facet normal -0 0 -1
    outer loop
      vertex 16.555 -1.94986 0
      vertex 18.247 -1.56366 0
      vertex 22.5 -7.5 0
    endloop
  endfacet
  facet normal -0 0 -1
    outer loop
      vertex 18.247 -1.56366 0
      vertex 19 0 0
      vertex 22.5 -7.5 0
    endloop
  endfacet
  facet normal 0 0 -1
    outer loop
      vertex 15.1981 0.867767 0
      vertex 22.5 7.5 0
      vertex 16.555 1.94986 0
    endloop
  endfacet
  facet normal 0 0 -1
    outer loop
      vertex -6.59695 -7.5 0
      vertex 5 -8.66025 0
      vertex -5 -8.66025 0
    endloop
  endfacet
  facet normal -0 0 -1
    outer loop
      vertex 3.28169 5.023 0
      vertex 7.5 7.5 0
      vertex 4.73484 3.68528 0
    endloop
  endfacet
  facet normal 0 1 0
    outer loop
      vertex -22.5 7.5 0
      vertex -22.5 7.5 1
      vertex -7.5 7.5 0
    endloop
  endfacet
  facet normal 0 1 0
    outer loop
      vertex -7.5 7.5 0
      vertex -22.5 7.5 1
      vertex -7.5 7.5 1
    endloop
  endfacet
  facet normal 0 -0 1
    outer loop
      vertex -6.69131 -7.43145 1
      vertex -22.5 -7.5 1
      vertex -6.59695 -7.5 1
    endloop
  endfacet
  facet normal 0 -0 1
    outer loop
      vertex -17.445 -1.94986 1
      vertex -22.5 -7.5 1
      vertex -6.69131 -7.43145 1
    endloop
  endfacet
  facet normal 0 0 1
    outer loop
      vertex 3.09017 9.51056 1
      vertex 7.5 22.5 1
      vertex 1.04529 9.94522 1
    endloop
  endfacet
  facet normal -0 -0 1
    outer loop
      vertex -9.78148 -2.07912 1
      vertex -22.5 7.5 1
      vertex -9.13546 -4.06737 1
    endloop
  endfacet
  facet normal -0 -0 1
    outer loop
      vertex -10 0 1
      vertex -22.5 7.5 1
      vertex -9.78148 -2.07912 1
    endloop
  endfacet
  facet normal -0 0 1
    outer loop
      vertex -9.78148 2.07912 1
      vertex -22.5 7.5 1
      vertex -10 0 1
    endloop
  endfacet
  facet normal -0 0 1
    outer loop
      vertex -9.13546 4.06737 1
      vertex -22.5 7.5 1
      vertex -9.78148 2.07912 1
    endloop
  endfacet
  facet normal -0 0 1
    outer loop
      vertex -8.09017 5.87785 1
      vertex -22.5 7.5 1
      vertex -9.13546 4.06737 1
    endloop
  endfacet
  facet normal -0 0 1
    outer loop
      vertex -6.69131 7.43145 1
      vertex -22.5 7.5 1
      vertex -8.09017 5.87785 1
    endloop
  endfacet
  facet normal 0 -0 1
    outer loop
      vertex -7.5 7.5 1
      vertex -22.5 7.5 1
      vertex -6.69131 7.43145 1
    endloop
  endfacet
  facet normal 0 0 1
    outer loop
      vertex -15.753 1.56366 1
      vertex -15 0 1
      vertex -6.69131 -7.43145 1
    endloop
  endfacet
  facet normal 0 0 1
    outer loop
      vertex -17.445 1.94986 1
      vertex -15.753 1.56366 1
      vertex -22.5 7.5 1
    endloop
  endfacet
  facet normal 0 0 1
    outer loop
      vertex 7.5 22.5 1
      vertex -1.04529 9.94522 1
      vertex 1.04529 9.94522 1
    endloop
  endfacet
  facet normal -0 0 1
    outer loop
      vertex 7.5 7.5 1
      vertex 5 8.66025 1
      vertex 6.69131 7.43145 1
    endloop
  endfacet
  facet normal 0 -0 1
    outer loop
      vertex 19 0 1
      vertex 18.247 -1.56366 1
      vertex 22.5 -7.5 1
    endloop
  endfacet
  facet normal 0 0 1
    outer loop
      vertex 15.1981 -0.867767 1
      vertex 8.09017 5.87785 1
      vertex 9.13546 4.06737 1
    endloop
  endfacet
  facet normal 0 0 1
    outer loop
      vertex 22.5 -7.5 1
      vertex 9.13546 4.06737 1
      vertex 9.78148 2.07912 1
    endloop
  endfacet
  facet normal 0 0 1
    outer loop
      vertex 22.5 -7.5 1
      vertex 9.78148 2.07912 1
      vertex 10 0 1
    endloop
  endfacet
  facet normal 0 0 1
    outer loop
      vertex 22.5 -7.5 1
      vertex 10 0 1
      vertex 9.78148 -2.07912 1
    endloop
  endfacet
  facet normal 0 0 1
    outer loop
      vertex 22.5 -7.5 1
      vertex 9.78148 -2.07912 1
      vertex 9.13546 -4.06737 1
    endloop
  endfacet
  facet normal 0 0 1
    outer loop
      vertex 22.5 -7.5 1
      vertex 9.13546 -4.06737 1
      vertex 8.09017 -5.87785 1
    endloop
  endfacet
  facet normal 0 0 1
    outer loop
      vertex 22.5 -7.5 1
      vertex 8.09017 -5.87785 1
      vertex 6.69131 -7.43145 1
    endloop
  endfacet
  facet normal -0 0 1
    outer loop
      vertex 22.5 -7.5 1
      vertex 6.69131 -7.43145 1
      vertex 6.59695 -7.5 1
    endloop
  endfacet
  facet normal 0 0 1
    outer loop
      vertex 22.5 7.5 1
      vertex 7.5 7.5 1
      vertex 6.69131 7.43145 1
    endloop
  endfacet
  facet normal 0 0 1
    outer loop
      vertex -7.5 22.5 1
      vertex -1.80194 16.1322 1
      vertex -1.80194 17.8678 1
    endloop
  endfacet
  facet normal 0 0 1
    outer loop
      vertex -5 8.66025 1
      vertex -7.5 7.5 1
      vertex -6.69131 7.43145 1
    endloop
  endfacet
  facet normal 0 0 1
    outer loop
      vertex -15.753 1.56366 1
      vertex -6.69131 -7.43145 1
      vertex -8.09017 -5.87785 1
    endloop
  endfacet
  facet normal 0 0 1
    outer loop
      vertex -0.445042 18.9499 1
      vertex 1.24698 18.5637 1
      vertex 7.5 22.5 1
    endloop
  endfacet
  facet normal 0 -0 1
    outer loop
      vertex -22.5 7.5 1
      vertex -22.5 -7.5 1
      vertex -18.8019 -0.867767 1
    endloop
  endfacet
  facet normal 0 -0 1
    outer loop
      vertex -15.753 -1.56366 1
      vertex -17.445 -1.94986 1
      vertex -6.69131 -7.43145 1
    endloop
  endfacet
  facet normal 0 0 1
    outer loop
      vertex -22.5 7.5 1
      vertex -18.8019 -0.867767 1
      vertex -18.8019 0.867767 1
    endloop
  endfacet
  facet normal 0 0 1
    outer loop
      vertex 15.1981 -0.867767 1
      vertex 6.69131 7.43145 1
      vertex 8.09017 5.87785 1
    endloop
  endfacet
  facet normal 0 0 1
    outer loop
      vertex -22.5 7.5 1
      vertex -18.8019 0.867767 1
      vertex -17.445 1.94986 1
    endloop
  endfacet
  facet normal -0 -0 1
    outer loop
      vertex -9.13546 -4.06737 1
      vertex -15.753 1.56366 1
      vertex -8.09017 -5.87785 1
    endloop
  endfacet
  facet normal 0 0 1
    outer loop
      vertex -9.13546 -4.06737 1
      vertex -22.5 7.5 1
      vertex -15.753 1.56366 1
    endloop
  endfacet
  facet normal 0 -0 1
    outer loop
      vertex -15 0 1
      vertex -15.753 -1.56366 1
      vertex -6.69131 -7.43145 1
    endloop
  endfacet
  facet normal 0 0 1
    outer loop
      vertex 15.1981 -0.867767 1
      vertex 15.1981 0.867767 1
      vertex 6.69131 7.43145 1
    endloop
  endfacet
  facet normal 0 -0 1
    outer loop
      vertex -18.8019 -0.867767 1
      vertex -22.5 -7.5 1
      vertex -17.445 -1.94986 1
    endloop
  endfacet
  facet normal -0 0 1
    outer loop
      vertex -0.445042 15.0501 1
      vertex -1.80194 16.1322 1
      vertex -1.04529 9.94522 1
    endloop
  endfacet
  facet normal 0 0 1
    outer loop
      vertex 1.24698 18.5637 1
      vertex 2 17 1
      vertex 7.5 22.5 1
    endloop
  endfacet
  facet normal 0 0 1
    outer loop
      vertex -7.5 22.5 1
      vertex -0.445042 18.9499 1
      vertex 7.5 22.5 1
    endloop
  endfacet
  facet normal 0 0 1
    outer loop
      vertex -7.5 22.5 1
      vertex -1.80194 17.8678 1
      vertex -0.445042 18.9499 1
    endloop
  endfacet
  facet normal -0 -0 1
    outer loop
      vertex 16.555 -1.94986 1
      vertex 15.1981 -0.867767 1
      vertex 22.5 -7.5 1
    endloop
  endfacet
  facet normal 0 0 1
    outer loop
      vertex 7.5 22.5 1
      vertex 2 17 1
      vertex -1.04529 9.94522 1
    endloop
  endfacet
  facet normal 0 0 1
    outer loop
      vertex 2 17 1
      vertex 1.24698 15.4363 1
      vertex -1.04529 9.94522 1
    endloop
  endfacet
  facet normal 0 0 1
    outer loop
      vertex 1.24698 15.4363 1
      vertex -0.445042 15.0501 1
      vertex -1.04529 9.94522 1
    endloop
  endfacet
  facet normal 0 0 1
    outer loop
      vertex 22.5 -7.5 1
      vertex 15.1981 -0.867767 1
      vertex 9.13546 4.06737 1
    endloop
  endfacet
  facet normal 0 0 1
    outer loop
      vertex 22.5 7.5 1
      vertex 6.69131 7.43145 1
      vertex 15.1981 0.867767 1
    endloop
  endfacet
  facet normal 0 -0 1
    outer loop
      vertex 18.247 -1.56366 1
      vertex 16.555 -1.94986 1
      vertex 22.5 -7.5 1
    endloop
  endfacet
  facet normal 0 0 1
    outer loop
      vertex 22.5 7.5 1
      vertex 15.1981 0.867767 1
      vertex 16.555 1.94986 1
    endloop
  endfacet
  facet normal 0 0 1
    outer loop
      vertex 22.5 7.5 1
      vertex 16.555 1.94986 1
      vertex 18.247 1.56366 1
    endloop
  endfacet
  facet normal 0 0 1
    outer loop
      vertex 22.5 7.5 1
      vertex 19 0 1
      vertex 22.5 -7.5 1
    endloop
  endfacet
  facet normal 0 0 1
    outer loop
      vertex 22.5 7.5 1
      vertex 18.247 1.56366 1
      vertex 19 0 1
    endloop
  endfacet
  facet normal 0 0 1
    outer loop
      vertex 5 8.66025 1
      vertex 7.5 22.5 1
      vertex 3.09017 9.51056 1
    endloop
  endfacet
  facet normal 0 0 1
    outer loop
      vertex 7.5 7.5 1
      vertex 7.5 22.5 1
      vertex 5 8.66025 1
    endloop
  endfacet
  facet normal 0 0 1
    outer loop
      vertex -7.5 22.5 1
      vertex -1.04529 9.94522 1
      vertex -1.80194 16.1322 1
    endloop
  endfacet
  facet normal 0 0 1
    outer loop
      vertex -7.5 22.5 1
      vertex -3.09017 9.51056 1
      vertex -1.04529 9.94522 1
    endloop
  endfacet
  facet normal 0 0 1
    outer loop
      vertex -7.5 22.5 1
      vertex -5 8.66025 1
      vertex -3.09017 9.51056 1
    endloop
  endfacet
  facet normal 0 -0 1
    outer loop
      vertex -7.5 22.5 1
      vertex -7.5 7.5 1
      vertex -5 8.66025 1
    endloop
  endfacet
  facet normal -0.587785 -0.809017 0
    outer loop
      vertex -6.69131 -7.43145 24
      vertex -6.69131 -7.43145 1
      vertex -6.59695 -7.5 1
    endloop
  endfacet
  facet normal -0.587785 -0.809017 -2.15211e-17
    outer loop
      vertex -5 -8.66025 0
      vertex -6.69131 -7.43145 24
      vertex -6.59695 -7.5 1
    endloop
  endfacet
  facet normal -0.587785 -0.809017 -0
    outer loop
      vertex -6.59695 -7.5 0
      vertex -5 -8.66025 0
      vertex -6.59695 -7.5 1
    endloop
  endfacet
  facet normal -0.587785 -0.809017 -0
    outer loop
      vertex -5 -8.66025 0
      vertex -5 -8.66025 24
      vertex -6.69131 -7.43145 24
    endloop
  endfacet
  facet normal -0.406737 -0.913545 0
    outer loop
      vertex -5 -8.66025 24
      vertex -5 -8.66025 0
      vertex -3.09017 -9.51056 0
    endloop
  endfacet
  facet normal -0.406737 -0.913545 0
    outer loop
      vertex -3.09017 -9.51056 24
      vertex -5 -8.66025 24
      vertex -3.09017 -9.51056 0
    endloop
  endfacet
  facet normal -0.207912 -0.978148 0
    outer loop
      vertex -3.09017 -9.51056 24
      vertex -3.09017 -9.51056 0
      vertex -1.04529 -9.94522 0
    endloop
  endfacet
  facet normal -0.207912 -0.978148 0
    outer loop
      vertex -1.04529 -9.94522 24
      vertex -3.09017 -9.51056 24
      vertex -1.04529 -9.94522 0
    endloop
  endfacet
  facet normal 0 -1 0
    outer loop
      vertex -1.04529 -9.94522 24
      vertex -1.04529 -9.94522 0
      vertex 1.04529 -9.94522 0
    endloop
  endfacet
  facet normal 0 -1 0
    outer loop
      vertex 1.04529 -9.94522 24
      vertex -1.04529 -9.94522 24
      vertex 1.04529 -9.94522 0
    endloop
  endfacet
  facet normal 0.207912 -0.978148 0
    outer loop
      vertex 1.04529 -9.94522 24
      vertex 1.04529 -9.94522 0
      vertex 3.09017 -9.51056 0
    endloop
  endfacet
  facet normal 0.207912 -0.978148 0
    outer loop
      vertex 3.09017 -9.51056 24
      vertex 1.04529 -9.94522 24
      vertex 3.09017 -9.51056 0
    endloop
  endfacet
  facet normal 0.406737 -0.913545 0
    outer loop
      vertex 3.09017 -9.51056 24
      vertex 3.09017 -9.51056 0
      vertex 5 -8.66025 0
    endloop
  endfacet
  facet normal 0.406737 -0.913545 0
    outer loop
      vertex 5 -8.66025 24
      vertex 3.09017 -9.51056 24
      vertex 5 -8.66025 0
    endloop
  endfacet
  facet normal 0.587785 -0.809017 0
    outer loop
      vertex 5 -8.66025 24
      vertex 5 -8.66025 0
      vertex 6.59695 -7.5 0
    endloop
  endfacet
  facet normal 0.587785 -0.809017 -2.57457e-16
    outer loop
      vertex 6.69131 -7.43145 1
      vertex 5 -8.66025 24
      vertex 6.59695 -7.5 1
    endloop
  endfacet
  facet normal 0.587785 -0.809017 0
    outer loop
      vertex 6.59695 -7.5 1
      vertex 5 -8.66025 24
      vertex 6.59695 -7.5 0
    endloop
  endfacet
  facet normal 0.587785 -0.809017 0
    outer loop
      vertex 6.69131 -7.43145 24
      vertex 5 -8.66025 24
      vertex 6.69131 -7.43145 1
    endloop
  endfacet
  facet normal 0 -1 0
    outer loop
      vertex 6.59695 -7.5 1
      vertex 6.59695 -7.5 0
      vertex 22.5 -7.5 0
    endloop
  endfacet
  facet normal 0 -1 0
    outer loop
      vertex 22.5 -7.5 1
      vertex 6.59695 -7.5 1
      vertex 22.5 -7.5 0
    endloop
  endfacet
  facet normal 1 0 -0
    outer loop
      vertex 22.5 -7.5 1
      vertex 22.5 -7.5 0
      vertex 22.5 7.5 0
    endloop
  endfacet
  facet normal 1 0 0
    outer loop
      vertex 22.5 7.5 1
      vertex 22.5 -7.5 1
      vertex 22.5 7.5 0
    endloop
  endfacet
  facet normal 0 1 0
    outer loop
      vertex 7.5 7.5 0
      vertex 7.5 7.5 1
      vertex 22.5 7.5 0
    endloop
  endfacet
  facet normal 0 1 0
    outer loop
      vertex 22.5 7.5 0
      vertex 7.5 7.5 1
      vertex 22.5 7.5 1
    endloop
  endfacet
  facet normal 1 0 -0
    outer loop
      vertex 7.5 7.5 1
      vertex 7.5 7.5 0
      vertex 7.5 22.5 0
    endloop
  endfacet
  facet normal 1 0 0
    outer loop
      vertex 7.5 22.5 1
      vertex 7.5 7.5 1
      vertex 7.5 22.5 0
    endloop
  endfacet
  facet normal 0 1 0
    outer loop
      vertex -7.5 22.5 0
      vertex -7.5 22.5 1
      vertex 7.5 22.5 0
    endloop
  endfacet
  facet normal 0 1 0
    outer loop
      vertex 7.5 22.5 0
      vertex -7.5 22.5 1
      vertex 7.5 22.5 1
    endloop
  endfacet
  facet normal -1 -0 -0
    outer loop
      vertex -7.5 7.5 0
      vertex -7.5 7.5 1
      vertex -7.5 22.5 0
    endloop
  endfacet
  facet normal -1 0 0
    outer loop
      vertex -7.5 22.5 0
      vertex -7.5 7.5 1
      vertex -7.5 22.5 1
    endloop
  endfacet
  facet normal 0.62349 -0.781831 0
    outer loop
      vertex -17.445 1.94986 0
      vertex -17.445 1.94986 1
      vertex -18.8019 0.867767 1
    endloop
  endfacet
  facet normal 0.62349 -0.781831 0
    outer loop
      vertex -18.8019 0.867767 0
      vertex -17.445 1.94986 0
      vertex -18.8019 0.867767 1
    endloop
  endfacet
  facet normal 1 0 0
    outer loop
      vertex -18.8019 0.867767 0
      vertex -18.8019 0.867767 1
      vertex -18.8019 -0.867767 1
    endloop
  endfacet
  facet normal 1 0 0
    outer loop
      vertex -18.8019 -0.867767 0
      vertex -18.8019 0.867767 0
      vertex -18.8019 -0.867767 1
    endloop
  endfacet
  facet normal -0.222521 -0.974928 -0
    outer loop
      vertex -15.753 1.56366 0
      vertex -15.753 1.56366 1
      vertex -17.445 1.94986 1
    endloop
  endfacet
  facet normal -0.222521 -0.974928 -0
    outer loop
      vertex -17.445 1.94986 0
      vertex -15.753 1.56366 0
      vertex -17.445 1.94986 1
    endloop
  endfacet
  facet normal -0.900969 -0.433884 0
    outer loop
      vertex -15 0 1
      vertex -15.753 1.56366 1
      vertex -15 0 0
    endloop
  endfacet
  facet normal -0.900969 -0.433884 0
    outer loop
      vertex -15 0 0
      vertex -15.753 1.56366 1
      vertex -15.753 1.56366 0
    endloop
  endfacet
  facet normal -0.900969 0.433884 0
    outer loop
      vertex -15 0 1
      vertex -15 0 0
      vertex -15.753 -1.56366 1
    endloop
  endfacet
  facet normal -0.900969 0.433884 0
    outer loop
      vertex -15.753 -1.56366 1
      vertex -15 0 0
      vertex -15.753 -1.56366 0
    endloop
  endfacet
  facet normal -0.222521 0.974928 0
    outer loop
      vertex -15.753 -1.56366 1
      vertex -15.753 -1.56366 0
      vertex -17.445 -1.94986 1
    endloop
  endfacet
  facet normal -0.222521 0.974928 0
    outer loop
      vertex -17.445 -1.94986 1
      vertex -15.753 -1.56366 0
      vertex -17.445 -1.94986 0
    endloop
  endfacet
  facet normal 0.62349 0.781831 -0
    outer loop
      vertex -17.445 -1.94986 1
      vertex -17.445 -1.94986 0
      vertex -18.8019 -0.867767 1
    endloop
  endfacet
  facet normal 0.62349 0.781831 -0
    outer loop
      vertex -18.8019 -0.867767 1
      vertex -17.445 -1.94986 0
      vertex -18.8019 -0.867767 0
    endloop
  endfacet
  facet normal 1 0 0
    outer loop
      vertex -5.91817 0.987568 0
      vertex -5.91817 0.987568 24
      vertex -5.91817 -0.987568 24
    endloop
  endfacet
  facet normal 1 0 0
    outer loop
      vertex -5.91817 -0.987568 0
      vertex -5.91817 0.987568 0
      vertex -5.91817 -0.987568 24
    endloop
  endfacet
  facet normal 0.945817 -0.324699 0
    outer loop
      vertex -5.27684 2.85568 0
      vertex -5.27684 2.85568 24
      vertex -5.91817 0.987568 24
    endloop
  endfacet
  facet normal 0.945817 -0.324699 0
    outer loop
      vertex -5.91817 0.987568 0
      vertex -5.27684 2.85568 0
      vertex -5.91817 0.987568 24
    endloop
  endfacet
  facet normal 0.78914 -0.614213 0
    outer loop
      vertex -4.06369 4.41434 0
      vertex -4.06369 4.41434 24
      vertex -5.27684 2.85568 24
    endloop
  endfacet
  facet normal 0.78914 -0.614213 0
    outer loop
      vertex -5.27684 2.85568 0
      vertex -4.06369 4.41434 0
      vertex -5.27684 2.85568 24
    endloop
  endfacet
  facet normal 0.546949 -0.837166 0
    outer loop
      vertex -2.41017 5.49464 0
      vertex -2.41017 5.49464 24
      vertex -4.06369 4.41434 24
    endloop
  endfacet
  facet normal 0.546949 -0.837166 0
    outer loop
      vertex -4.06369 4.41434 0
      vertex -2.41017 5.49464 0
      vertex -4.06369 4.41434 24
    endloop
  endfacet
  facet normal 0.245485 -0.9694 0
    outer loop
      vertex -0.495476 5.97951 0
      vertex -0.495476 5.97951 24
      vertex -2.41017 5.49464 24
    endloop
  endfacet
  facet normal 0.245485 -0.9694 0
    outer loop
      vertex -2.41017 5.49464 0
      vertex -0.495476 5.97951 0
      vertex -2.41017 5.49464 24
    endloop
  endfacet
  facet normal -0.0825792 -0.996585 -0
    outer loop
      vertex 1.47291 5.8164 0
      vertex 1.47291 5.8164 24
      vertex -0.495476 5.97951 24
    endloop
  endfacet
  facet normal -0.0825792 -0.996585 -0
    outer loop
      vertex -0.495476 5.97951 0
      vertex 1.47291 5.8164 0
      vertex -0.495476 5.97951 24
    endloop
  endfacet
  facet normal -0.401696 -0.915773 -0
    outer loop
      vertex 3.28169 5.023 0
      vertex 3.28169 5.023 24
      vertex 1.47291 5.8164 24
    endloop
  endfacet
  facet normal -0.401696 -0.915773 -0
    outer loop
      vertex 1.47291 5.8164 0
      vertex 3.28169 5.023 0
      vertex 1.47291 5.8164 24
    endloop
  endfacet
  facet normal -0.677282 -0.735724 -0
    outer loop
      vertex 4.73484 3.68528 0
      vertex 4.73484 3.68528 24
      vertex 3.28169 5.023 24
    endloop
  endfacet
  facet normal -0.677282 -0.735724 -0
    outer loop
      vertex 3.28169 5.023 0
      vertex 4.73484 3.68528 0
      vertex 3.28169 5.023 24
    endloop
  endfacet
  facet normal -0.879474 -0.475947 0
    outer loop
      vertex 5.6749 1.9482 24
      vertex 4.73484 3.68528 24
      vertex 5.6749 1.9482 0
    endloop
  endfacet
  facet normal -0.879474 -0.475947 0
    outer loop
      vertex 5.6749 1.9482 0
      vertex 4.73484 3.68528 24
      vertex 4.73484 3.68528 0
    endloop
  endfacet
  facet normal -0.986361 -0.164595 0
    outer loop
      vertex 6 0 24
      vertex 5.6749 1.9482 24
      vertex 6 0 0
    endloop
  endfacet
  facet normal -0.986361 -0.164595 0
    outer loop
      vertex 6 0 0
      vertex 5.6749 1.9482 24
      vertex 5.6749 1.9482 0
    endloop
  endfacet
  facet normal -0.986361 0.164595 0
    outer loop
      vertex 6 0 24
      vertex 6 0 0
      vertex 5.6749 -1.9482 24
    endloop
  endfacet
  facet normal -0.986361 0.164595 0
    outer loop
      vertex 5.6749 -1.9482 24
      vertex 6 0 0
      vertex 5.6749 -1.9482 0
    endloop
  endfacet
  facet normal -0.879474 0.475947 0
    outer loop
      vertex 5.6749 -1.9482 24
      vertex 5.6749 -1.9482 0
      vertex 4.73484 -3.68528 24
    endloop
  endfacet
  facet normal -0.879474 0.475947 0
    outer loop
      vertex 4.73484 -3.68528 24
      vertex 5.6749 -1.9482 0
      vertex 4.73484 -3.68528 0
    endloop
  endfacet
  facet normal -0.677282 0.735724 0
    outer loop
      vertex 4.73484 -3.68528 24
      vertex 4.73484 -3.68528 0
      vertex 3.28169 -5.023 24
    endloop
  endfacet
  facet normal -0.677282 0.735724 0
    outer loop
      vertex 3.28169 -5.023 24
      vertex 4.73484 -3.68528 0
      vertex 3.28169 -5.023 0
    endloop
  endfacet
  facet normal -0.401696 0.915773 0
    outer loop
      vertex 3.28169 -5.023 24
      vertex 3.28169 -5.023 0
      vertex 1.47291 -5.8164 24
    endloop
  endfacet
  facet normal -0.401696 0.915773 0
    outer loop
      vertex 1.47291 -5.8164 24
      vertex 3.28169 -5.023 0
      vertex 1.47291 -5.8164 0
    endloop
  endfacet
  facet normal -0.0825792 0.996585 0
    outer loop
      vertex 1.47291 -5.8164 24
      vertex 1.47291 -5.8164 0
      vertex -0.495476 -5.97951 24
    endloop
  endfacet
  facet normal -0.0825792 0.996585 0
    outer loop
      vertex -0.495476 -5.97951 24
      vertex 1.47291 -5.8164 0
      vertex -0.495476 -5.97951 0
    endloop
  endfacet
  facet normal 0.245485 0.9694 -0
    outer loop
      vertex -0.495476 -5.97951 24
      vertex -0.495476 -5.97951 0
      vertex -2.41017 -5.49464 24
    endloop
  endfacet
  facet normal 0.245485 0.9694 -0
    outer loop
      vertex -2.41017 -5.49464 24
      vertex -0.495476 -5.97951 0
      vertex -2.41017 -5.49464 0
    endloop
  endfacet
  facet normal 0.546949 0.837166 -0
    outer loop
      vertex -2.41017 -5.49464 24
      vertex -2.41017 -5.49464 0
      vertex -4.06369 -4.41434 24
    endloop
  endfacet
  facet normal 0.546949 0.837166 -0
    outer loop
      vertex -4.06369 -4.41434 24
      vertex -2.41017 -5.49464 0
      vertex -4.06369 -4.41434 0
    endloop
  endfacet
  facet normal 0.78914 0.614213 0
    outer loop
      vertex -5.27684 -2.85568 24
      vertex -4.06369 -4.41434 24
      vertex -4.06369 -4.41434 0
    endloop
  endfacet
  facet normal 0.78914 0.614213 0
    outer loop
      vertex -5.27684 -2.85568 0
      vertex -5.27684 -2.85568 24
      vertex -4.06369 -4.41434 0
    endloop
  endfacet
  facet normal 0.945817 0.324699 0
    outer loop
      vertex -5.91817 -0.987568 24
      vertex -5.27684 -2.85568 24
      vertex -5.27684 -2.85568 0
    endloop
  endfacet
  facet normal 0.945817 0.324699 0
    outer loop
      vertex -5.91817 -0.987568 0
      vertex -5.91817 -0.987568 24
      vertex -5.27684 -2.85568 0
    endloop
  endfacet
  facet normal 0.62349 -0.781831 0
    outer loop
      vertex -0.445042 18.9499 0
      vertex -0.445042 18.9499 1
      vertex -1.80194 17.8678 1
    endloop
  endfacet
  facet normal 0.62349 -0.781831 0
    outer loop
      vertex -1.80194 17.8678 0
      vertex -0.445042 18.9499 0
      vertex -1.80194 17.8678 1
    endloop
  endfacet
  facet normal 1 0 0
    outer loop
      vertex -1.80194 17.8678 0
      vertex -1.80194 17.8678 1
      vertex -1.80194 16.1322 1
    endloop
  endfacet
  facet normal 1 0 0
    outer loop
      vertex -1.80194 16.1322 0
      vertex -1.80194 17.8678 0
      vertex -1.80194 16.1322 1
    endloop
  endfacet
  facet normal -0.222521 -0.974928 -0
    outer loop
      vertex 1.24698 18.5637 0
      vertex 1.24698 18.5637 1
      vertex -0.445042 18.9499 1
    endloop
  endfacet
  facet normal -0.222521 -0.974928 -0
    outer loop
      vertex -0.445042 18.9499 0
      vertex 1.24698 18.5637 0
      vertex -0.445042 18.9499 1
    endloop
  endfacet
  facet normal -0.900969 -0.433884 0
    outer loop
      vertex 2 17 1
      vertex 1.24698 18.5637 1
      vertex 2 17 0
    endloop
  endfacet
  facet normal -0.900969 -0.433884 0
    outer loop
      vertex 2 17 0
      vertex 1.24698 18.5637 1
      vertex 1.24698 18.5637 0
    endloop
  endfacet
  facet normal -0.900969 0.433884 0
    outer loop
      vertex 2 17 1
      vertex 2 17 0
      vertex 1.24698 15.4363 1
    endloop
  endfacet
  facet normal -0.900969 0.433884 0
    outer loop
      vertex 1.24698 15.4363 1
      vertex 2 17 0
      vertex 1.24698 15.4363 0
    endloop
  endfacet
  facet normal -0.222521 0.974928 0
    outer loop
      vertex 1.24698 15.4363 1
      vertex 1.24698 15.4363 0
      vertex -0.445042 15.0501 1
    endloop
  endfacet
  facet normal -0.222521 0.974928 0
    outer loop
      vertex -0.445042 15.0501 1
      vertex 1.24698 15.4363 0
      vertex -0.445042 15.0501 0
    endloop
  endfacet
  facet normal 0.62349 0.781831 -0
    outer loop
      vertex -0.445042 15.0501 1
      vertex -0.445042 15.0501 0
      vertex -1.80194 16.1322 1
    endloop
  endfacet
  facet normal 0.62349 0.781831 -0
    outer loop
      vertex -1.80194 16.1322 1
      vertex -0.445042 15.0501 0
      vertex -1.80194 16.1322 0
    endloop
  endfacet
  facet normal 0.62349 -0.781831 0
    outer loop
      vertex 16.555 1.94986 0
      vertex 16.555 1.94986 1
      vertex 15.1981 0.867767 1
    endloop
  endfacet
  facet normal 0.62349 -0.781831 0
    outer loop
      vertex 15.1981 0.867767 0
      vertex 16.555 1.94986 0
      vertex 15.1981 0.867767 1
    endloop
  endfacet
  facet normal 1 0 0
    outer loop
      vertex 15.1981 0.867767 0
      vertex 15.1981 0.867767 1
      vertex 15.1981 -0.867767 1
    endloop
  endfacet
  facet normal 1 0 0
    outer loop
      vertex 15.1981 -0.867767 0
      vertex 15.1981 0.867767 0
      vertex 15.1981 -0.867767 1
    endloop
  endfacet
  facet normal -0.222521 -0.974928 -0
    outer loop
      vertex 18.247 1.56366 0
      vertex 18.247 1.56366 1
      vertex 16.555 1.94986 1
    endloop
  endfacet
  facet normal -0.222521 -0.974928 -0
    outer loop
      vertex 16.555 1.94986 0
      vertex 18.247 1.56366 0
      vertex 16.555 1.94986 1
    endloop
  endfacet
  facet normal -0.900969 -0.433884 0
    outer loop
      vertex 19 0 1
      vertex 18.247 1.56366 1
      vertex 19 0 0
    endloop
  endfacet
  facet normal -0.900969 -0.433884 0
    outer loop
      vertex 19 0 0
      vertex 18.247 1.56366 1
      vertex 18.247 1.56366 0
    endloop
  endfacet
  facet normal -0.900969 0.433884 0
    outer loop
      vertex 19 0 1
      vertex 19 0 0
      vertex 18.247 -1.56366 1
    endloop
  endfacet
  facet normal -0.900969 0.433884 0
    outer loop
      vertex 18.247 -1.56366 1
      vertex 19 0 0
      vertex 18.247 -1.56366 0
    endloop
  endfacet
  facet normal -0.222521 0.974928 0
    outer loop
      vertex 18.247 -1.56366 1
      vertex 18.247 -1.56366 0
      vertex 16.555 -1.94986 1
    endloop
  endfacet
  facet normal -0.222521 0.974928 0
    outer loop
      vertex 16.555 -1.94986 1
      vertex 18.247 -1.56366 0
      vertex 16.555 -1.94986 0
    endloop
  endfacet
  facet normal 0.62349 0.781831 -0
    outer loop
      vertex 16.555 -1.94986 1
      vertex 16.555 -1.94986 0
      vertex 15.1981 -0.867767 1
    endloop
  endfacet
  facet normal 0.62349 0.781831 -0
    outer loop
      vertex 15.1981 -0.867767 1
      vertex 16.555 -1.94986 0
      vertex 15.1981 -0.867767 0
    endloop
  endfacet
  facet normal 0.743145 -0.669131 0
    outer loop
      vertex 6.69131 -7.43145 24
      vertex 6.69131 -7.43145 1
      vertex 8.09017 -5.87785 1
    endloop
  endfacet
  facet normal 0.743145 -0.669131 0
    outer loop
      vertex 8.09017 -5.87785 24
      vertex 6.69131 -7.43145 24
      vertex 8.09017 -5.87785 1
    endloop
  endfacet
  facet normal 0.866025 -0.5 0
    outer loop
      vertex 8.09017 -5.87785 24
      vertex 8.09017 -5.87785 1
      vertex 9.13546 -4.06737 1
    endloop
  endfacet
  facet normal 0.866025 -0.5 0
    outer loop
      vertex 9.13546 -4.06737 24
      vertex 8.09017 -5.87785 24
      vertex 9.13546 -4.06737 1
    endloop
  endfacet
  facet normal 0.951057 -0.309017 0
    outer loop
      vertex 9.13546 -4.06737 24
      vertex 9.13546 -4.06737 1
      vertex 9.78148 -2.07912 1
    endloop
  endfacet
  facet normal 0.951057 -0.309017 0
    outer loop
      vertex 9.78148 -2.07912 24
      vertex 9.13546 -4.06737 24
      vertex 9.78148 -2.07912 1
    endloop
  endfacet
  facet normal 0.994522 -0.104528 0
    outer loop
      vertex 9.78148 -2.07912 24
      vertex 9.78148 -2.07912 1
      vertex 10 0 1
    endloop
  endfacet
  facet normal 0.994522 -0.104528 0
    outer loop
      vertex 10 0 24
      vertex 9.78148 -2.07912 24
      vertex 10 0 1
    endloop
  endfacet
  facet normal 0.994522 0.104528 0
    outer loop
      vertex 10 0 1
      vertex 9.78148 2.07912 1
      vertex 9.78148 2.07912 24
    endloop
  endfacet
  facet normal 0.994522 0.104528 -0
    outer loop
      vertex 10 0 24
      vertex 10 0 1
      vertex 9.78148 2.07912 24
    endloop
  endfacet
  facet normal 0.951057 0.309017 0
    outer loop
      vertex 9.78148 2.07912 1
      vertex 9.13546 4.06737 1
      vertex 9.13546 4.06737 24
    endloop
  endfacet
  facet normal 0.951057 0.309017 -0
    outer loop
      vertex 9.78148 2.07912 24
      vertex 9.78148 2.07912 1
      vertex 9.13546 4.06737 24
    endloop
  endfacet
  facet normal 0.866025 0.5 0
    outer loop
      vertex 9.13546 4.06737 1
      vertex 8.09017 5.87785 1
      vertex 8.09017 5.87785 24
    endloop
  endfacet
  facet normal 0.866025 0.5 -0
    outer loop
      vertex 9.13546 4.06737 24
      vertex 9.13546 4.06737 1
      vertex 8.09017 5.87785 24
    endloop
  endfacet
  facet normal 0.743145 0.669131 0
    outer loop
      vertex 8.09017 5.87785 1
      vertex 6.69131 7.43145 1
      vertex 6.69131 7.43145 24
    endloop
  endfacet
  facet normal 0.743145 0.669131 -0
    outer loop
      vertex 8.09017 5.87785 24
      vertex 8.09017 5.87785 1
      vertex 6.69131 7.43145 24
    endloop
  endfacet
  facet normal 0.587785 0.809017 0
    outer loop
      vertex 5 8.66025 1
      vertex 5 8.66025 24
      vertex 6.69131 7.43145 1
    endloop
  endfacet
  facet normal 0.587785 0.809017 0
    outer loop
      vertex 6.69131 7.43145 1
      vertex 5 8.66025 24
      vertex 6.69131 7.43145 24
    endloop
  endfacet
  facet normal 0.406737 0.913545 0
    outer loop
      vertex 3.09017 9.51056 1
      vertex 3.09017 9.51056 24
      vertex 5 8.66025 1
    endloop
  endfacet
  facet normal 0.406737 0.913545 0
    outer loop
      vertex 5 8.66025 1
      vertex 3.09017 9.51056 24
      vertex 5 8.66025 24
    endloop
  endfacet
  facet normal 0.207912 0.978148 0
    outer loop
      vertex 1.04529 9.94522 1
      vertex 1.04529 9.94522 24
      vertex 3.09017 9.51056 1
    endloop
  endfacet
  facet normal 0.207912 0.978148 0
    outer loop
      vertex 3.09017 9.51056 1
      vertex 1.04529 9.94522 24
      vertex 3.09017 9.51056 24
    endloop
  endfacet
  facet normal 0 1 0
    outer loop
      vertex -1.04529 9.94522 1
      vertex -1.04529 9.94522 24
      vertex 1.04529 9.94522 1
    endloop
  endfacet
  facet normal 0 1 0
    outer loop
      vertex 1.04529 9.94522 1
      vertex -1.04529 9.94522 24
      vertex 1.04529 9.94522 24
    endloop
  endfacet
  facet normal -0.207912 0.978148 0
    outer loop
      vertex -3.09017 9.51056 1
      vertex -3.09017 9.51056 24
      vertex -1.04529 9.94522 1
    endloop
  endfacet
  facet normal -0.207912 0.978148 0
    outer loop
      vertex -1.04529 9.94522 1
      vertex -3.09017 9.51056 24
      vertex -1.04529 9.94522 24
    endloop
  endfacet
  facet normal -0.406737 0.913545 0
    outer loop
      vertex -5 8.66025 1
      vertex -5 8.66025 24
      vertex -3.09017 9.51056 1
    endloop
  endfacet
  facet normal -0.406737 0.913545 0
    outer loop
      vertex -3.09017 9.51056 1
      vertex -5 8.66025 24
      vertex -3.09017 9.51056 24
    endloop
  endfacet
  facet normal -0.587785 0.809017 0
    outer loop
      vertex -6.69131 7.43145 1
      vertex -6.69131 7.43145 24
      vertex -5 8.66025 1
    endloop
  endfacet
  facet normal -0.587785 0.809017 0
    outer loop
      vertex -5 8.66025 1
      vertex -6.69131 7.43145 24
      vertex -5 8.66025 24
    endloop
  endfacet
  facet normal -0.743145 0.669131 0
    outer loop
      vertex -8.09017 5.87785 1
      vertex -8.09017 5.87785 24
      vertex -6.69131 7.43145 1
    endloop
  endfacet
  facet normal -0.743145 0.669131 0
    outer loop
      vertex -6.69131 7.43145 1
      vertex -8.09017 5.87785 24
      vertex -6.69131 7.43145 24
    endloop
  endfacet
  facet normal -0.866025 0.5 0
    outer loop
      vertex -9.13546 4.06737 1
      vertex -9.13546 4.06737 24
      vertex -8.09017 5.87785 1
    endloop
  endfacet
  facet normal -0.866025 0.5 0
    outer loop
      vertex -8.09017 5.87785 1
      vertex -9.13546 4.06737 24
      vertex -8.09017 5.87785 24
    endloop
  endfacet
  facet normal -0.951057 0.309017 0
    outer loop
      vertex -9.78148 2.07912 1
      vertex -9.78148 2.07912 24
      vertex -9.13546 4.06737 1
    endloop
  endfacet
  facet normal -0.951057 0.309017 0
    outer loop
      vertex -9.13546 4.06737 1
      vertex -9.78148 2.07912 24
      vertex -9.13546 4.06737 24
    endloop
  endfacet
  facet normal -0.994522 0.104528 0
    outer loop
      vertex -10 0 1
      vertex -10 0 24
      vertex -9.78148 2.07912 1
    endloop
  endfacet
  facet normal -0.994522 0.104528 0
    outer loop
      vertex -9.78148 2.07912 1
      vertex -10 0 24
      vertex -9.78148 2.07912 24
    endloop
  endfacet
  facet normal -0.994522 -0.104528 -0
    outer loop
      vertex -10 0 1
      vertex -9.78148 -2.07912 1
      vertex -10 0 24
    endloop
  endfacet
  facet normal -0.994522 -0.104528 0
    outer loop
      vertex -10 0 24
      vertex -9.78148 -2.07912 1
      vertex -9.78148 -2.07912 24
    endloop
  endfacet
  facet normal -0.951057 -0.309017 -0
    outer loop
      vertex -9.78148 -2.07912 1
      vertex -9.13546 -4.06737 1
      vertex -9.78148 -2.07912 24
    endloop
  endfacet
  facet normal -0.951057 -0.309017 0
    outer loop
      vertex -9.78148 -2.07912 24
      vertex -9.13546 -4.06737 1
      vertex -9.13546 -4.06737 24
    endloop
  endfacet
  facet normal -0.866025 -0.5 -0
    outer loop
      vertex -9.13546 -4.06737 1
      vertex -8.09017 -5.87785 1
      vertex -9.13546 -4.06737 24
    endloop
  endfacet
  facet normal -0.866025 -0.5 0
    outer loop
      vertex -9.13546 -4.06737 24
      vertex -8.09017 -5.87785 1
      vertex -8.09017 -5.87785 24
    endloop
  endfacet
  facet normal -0.743145 -0.669131 -0
    outer loop
      vertex -8.09017 -5.87785 1
      vertex -6.69131 -7.43145 1
      vertex -8.09017 -5.87785 24
    endloop
  endfacet
  facet normal -0.743145 -0.669131 0
    outer loop
      vertex -8.09017 -5.87785 24
      vertex -6.69131 -7.43145 1
      vertex -6.69131 -7.43145 24
    endloop
  endfacet
  facet normal 0 0 1
    outer loop
      vertex -9.78148 2.07912 24
      vertex -10 0 24
      vertex -9.78148 -2.07912 24
    endloop
  endfacet
  facet normal 0 0 1
    outer loop
      vertex -8.09017 -5.87785 24
      vertex -9.78148 2.07912 24
      vertex -9.13546 -4.06737 24
    endloop
  endfacet
  facet normal 0 0 1
    outer loop
      vertex -9.13546 -4.06737 24
      vertex -9.78148 2.07912 24
      vertex -9.78148 -2.07912 24
    endloop
  endfacet
  facet normal 0 0 1
    outer loop
      vertex -6.69131 -7.43145 24
      vertex -9.78148 2.07912 24
      vertex -8.09017 -5.87785 24
    endloop
  endfacet
  facet normal 0 0 1
    outer loop
      vertex -5 -8.66025 24
      vertex -9.78148 2.07912 24
      vertex -6.69131 -7.43145 24
    endloop
  endfacet
  facet normal 0 0 1
    outer loop
      vertex -3.09017 -9.51056 24
      vertex -9.78148 2.07912 24
      vertex -5 -8.66025 24
    endloop
  endfacet
  facet normal 0 0 1
    outer loop
      vertex -1.04529 -9.94522 24
      vertex -9.78148 2.07912 24
      vertex -3.09017 -9.51056 24
    endloop
  endfacet
  facet normal -0 -0 1
    outer loop
      vertex -4.06369 -4.41434 24
      vertex -9.78148 2.07912 24
      vertex -1.04529 -9.94522 24
    endloop
  endfacet
  facet normal 0 -0 1
    outer loop
      vertex 5.6749 -1.9482 24
      vertex 4.73484 -3.68528 24
      vertex 9.13546 -4.06737 24
    endloop
  endfacet
  facet normal 0 0 1
    outer loop
      vertex 4.73484 3.68528 24
      vertex 9.78148 2.07912 24
      vertex 9.13546 4.06737 24
    endloop
  endfacet
  facet normal -0 0 1
    outer loop
      vertex -5.27684 2.85568 24
      vertex -4.06369 4.41434 24
      vertex -9.78148 2.07912 24
    endloop
  endfacet
  facet normal 0 -0 1
    outer loop
      vertex 6 0 24
      vertex 5.6749 -1.9482 24
      vertex 9.78148 -2.07912 24
    endloop
  endfacet
  facet normal -0 0 1
    outer loop
      vertex -4.06369 4.41434 24
      vertex -2.41017 5.49464 24
      vertex -9.78148 2.07912 24
    endloop
  endfacet
  facet normal 0 -0 1
    outer loop
      vertex 1.04529 9.94522 24
      vertex -9.78148 2.07912 24
      vertex 3.09017 9.51056 24
    endloop
  endfacet
  facet normal 0 -0 1
    outer loop
      vertex -1.04529 9.94522 24
      vertex -9.78148 2.07912 24
      vertex 1.04529 9.94522 24
    endloop
  endfacet
  facet normal 0 -0 1
    outer loop
      vertex -3.09017 9.51056 24
      vertex -9.78148 2.07912 24
      vertex -1.04529 9.94522 24
    endloop
  endfacet
  facet normal 0 -0 1
    outer loop
      vertex -5 8.66025 24
      vertex -9.78148 2.07912 24
      vertex -3.09017 9.51056 24
    endloop
  endfacet
  facet normal 0 -0 1
    outer loop
      vertex -6.69131 7.43145 24
      vertex -9.78148 2.07912 24
      vertex -5 8.66025 24
    endloop
  endfacet
  facet normal 0 -0 1
    outer loop
      vertex -8.09017 5.87785 24
      vertex -9.78148 2.07912 24
      vertex -6.69131 7.43145 24
    endloop
  endfacet
  facet normal 0 -0 1
    outer loop
      vertex -9.13546 4.06737 24
      vertex -9.78148 2.07912 24
      vertex -8.09017 5.87785 24
    endloop
  endfacet
  facet normal 0 0 1
    outer loop
      vertex -5.91817 0.987568 24
      vertex -5.27684 2.85568 24
      vertex -9.78148 2.07912 24
    endloop
  endfacet
  facet normal 0 -0 1
    outer loop
      vertex 4.73484 -3.68528 24
      vertex 3.28169 -5.023 24
      vertex 8.09017 -5.87785 24
    endloop
  endfacet
  facet normal 0 0 1
    outer loop
      vertex 4.73484 3.68528 24
      vertex 5.6749 1.9482 24
      vertex 9.78148 2.07912 24
    endloop
  endfacet
  facet normal 0 0 1
    outer loop
      vertex 3.28169 5.023 24
      vertex 9.13546 4.06737 24
      vertex 8.09017 5.87785 24
    endloop
  endfacet
  facet normal 0 0 1
    outer loop
      vertex -2.41017 5.49464 24
      vertex -0.495476 5.97951 24
      vertex 5 8.66025 24
    endloop
  endfacet
  facet normal 0 -0 1
    outer loop
      vertex 3.09017 9.51056 24
      vertex -2.41017 5.49464 24
      vertex 5 8.66025 24
    endloop
  endfacet
  facet normal 0 0 1
    outer loop
      vertex 3.09017 9.51056 24
      vertex -9.78148 2.07912 24
      vertex -2.41017 5.49464 24
    endloop
  endfacet
  facet normal 0 -0 1
    outer loop
      vertex 5 8.66025 24
      vertex -0.495476 5.97951 24
      vertex 6.69131 7.43145 24
    endloop
  endfacet
  facet normal 0 0 1
    outer loop
      vertex -0.495476 5.97951 24
      vertex 1.47291 5.8164 24
      vertex 6.69131 7.43145 24
    endloop
  endfacet
  facet normal 0 -0 1
    outer loop
      vertex 6.69131 7.43145 24
      vertex 3.28169 5.023 24
      vertex 8.09017 5.87785 24
    endloop
  endfacet
  facet normal 0 0 1
    outer loop
      vertex 3.28169 5.023 24
      vertex 4.73484 3.68528 24
      vertex 9.13546 4.06737 24
    endloop
  endfacet
  facet normal 0 0 1
    outer loop
      vertex 1.47291 5.8164 24
      vertex 3.28169 5.023 24
      vertex 6.69131 7.43145 24
    endloop
  endfacet
  facet normal 0 -0 1
    outer loop
      vertex 9.78148 2.07912 24
      vertex 5.6749 1.9482 24
      vertex 10 0 24
    endloop
  endfacet
  facet normal 0 0 1
    outer loop
      vertex 10 0 24
      vertex 6 0 24
      vertex 9.78148 -2.07912 24
    endloop
  endfacet
  facet normal -0 0 1
    outer loop
      vertex 9.78148 -2.07912 24
      vertex 5.6749 -1.9482 24
      vertex 9.13546 -4.06737 24
    endloop
  endfacet
  facet normal -0 0 1
    outer loop
      vertex 9.13546 -4.06737 24
      vertex 4.73484 -3.68528 24
      vertex 8.09017 -5.87785 24
    endloop
  endfacet
  facet normal 0 0 1
    outer loop
      vertex 5.6749 1.9482 24
      vertex 6 0 24
      vertex 10 0 24
    endloop
  endfacet
  facet normal -0 0 1
    outer loop
      vertex 8.09017 -5.87785 24
      vertex 3.28169 -5.023 24
      vertex 6.69131 -7.43145 24
    endloop
  endfacet
  facet normal -0 0 1
    outer loop
      vertex 6.69131 -7.43145 24
      vertex 1.47291 -5.8164 24
      vertex 5 -8.66025 24
    endloop
  endfacet
  facet normal -0 -0 1
    outer loop
      vertex -2.41017 -5.49464 24
      vertex -4.06369 -4.41434 24
      vertex 1.04529 -9.94522 24
    endloop
  endfacet
  facet normal -0 0 1
    outer loop
      vertex 5 -8.66025 24
      vertex -0.495476 -5.97951 24
      vertex 3.09017 -9.51056 24
    endloop
  endfacet
  facet normal -0 0 1
    outer loop
      vertex 3.09017 -9.51056 24
      vertex -2.41017 -5.49464 24
      vertex 1.04529 -9.94522 24
    endloop
  endfacet
  facet normal 0 -0 1
    outer loop
      vertex 3.28169 -5.023 24
      vertex 1.47291 -5.8164 24
      vertex 6.69131 -7.43145 24
    endloop
  endfacet
  facet normal -0 0 1
    outer loop
      vertex 1.04529 -9.94522 24
      vertex -4.06369 -4.41434 24
      vertex -1.04529 -9.94522 24
    endloop
  endfacet
  facet normal 0 0 1
    outer loop
      vertex -4.06369 -4.41434 24
      vertex -5.27684 -2.85568 24
      vertex -9.78148 2.07912 24
    endloop
  endfacet
  facet normal 0 0 1
    outer loop
      vertex -5.27684 -2.85568 24
      vertex -5.91817 -0.987568 24
      vertex -9.78148 2.07912 24
    endloop
  endfacet
  facet normal 0 -0 1
    outer loop
      vertex 1.47291 -5.8164 24
      vertex -0.495476 -5.97951 24
      vertex 5 -8.66025 24
    endloop
  endfacet
  facet normal -0 -0 1
    outer loop
      vertex -0.495476 -5.97951 24
      vertex -2.41017 -5.49464 24
      vertex 3.09017 -9.51056 24
    endloop
  endfacet
  facet normal 0 0 1
    outer loop
      vertex -5.91817 -0.987568 24
      vertex -5.91817 0.987568 24
      vertex -9.78148 2.07912 24
    endloop
  endfacet
endsolid OpenSCAD_Model
